<svg xmlns="http://www.w3.org/2000/svg" width="26" height="30" viewBox="0 0 26 30">
  <path id="chart" d="M6.5,31h-2A1.5,1.5,0,0,1,3,29.5v-9A1.5,1.5,0,0,1,4.5,19h2A1.5,1.5,0,0,1,8,20.5v9A1.5,1.5,0,0,1,6.5,31Zm14,0h-2A1.5,1.5,0,0,1,17,29.5v-15A1.5,1.5,0,0,1,18.5,13h2A1.5,1.5,0,0,1,22,14.5v15A1.5,1.5,0,0,1,20.5,31Zm7,0h-2A1.5,1.5,0,0,1,24,29.5V7.5A1.5,1.5,0,0,1,25.5,6h2A1.5,1.5,0,0,1,29,7.5v22A1.5,1.5,0,0,1,27.5,31Zm-14,0h-2A1.5,1.5,0,0,1,10,29.5V2.5A1.5,1.5,0,0,1,11.5,1h2A1.5,1.5,0,0,1,15,2.5v27A1.5,1.5,0,0,1,13.5,31Z" transform="translate(-3 -1)" fill="#e8e8e8"/>
</svg>
