<svg xmlns="http://www.w3.org/2000/svg" width="31" height="31" viewBox="0 0 31 31">
  <g id="discord" transform="translate(-1945 -575)">
    <path id="Path_2" data-name="Path 2" d="M15.5,0A15.5,15.5,0,1,1,0,15.5,15.5,15.5,0,0,1,15.5,0Z" transform="translate(1945 575)" fill="#282931"/>
    <path id="Icon_awesome-discord" data-name="Icon awesome-discord" d="M9.96,8.15A.878.878,0,1,1,9.085,7.2a.912.912,0,0,1,.875.952ZM5.952,7.2a.956.956,0,0,0,0,1.9.912.912,0,0,0,.877-.952A.908.908,0,0,0,5.952,7.2Zm9.062-5.428V17.158c-2.161-1.91-1.47-1.278-3.981-3.612l.455,1.587H1.759A1.763,1.763,0,0,1,0,13.366V1.769A1.763,1.763,0,0,1,1.759,0h11.5a1.763,1.763,0,0,1,1.759,1.769ZM12.568,9.9a11.489,11.489,0,0,0-1.233-5A4.242,4.242,0,0,0,8.922,4l-.12.137a5.709,5.709,0,0,1,2.136,1.09A7.292,7.292,0,0,0,4.53,4.976c-.317.146-.506.249-.506.249A5.788,5.788,0,0,1,6.28,4.1L6.194,4a4.242,4.242,0,0,0-2.413.9,11.489,11.489,0,0,0-1.233,5,3.11,3.11,0,0,0,2.617,1.308s.317-.386.575-.712a2.668,2.668,0,0,1-1.5-1.014c.126.088.334.2.352.214a6.254,6.254,0,0,0,5.353.3,4.91,4.91,0,0,0,.987-.506,2.707,2.707,0,0,1-1.555,1.019c.257.326.566.7.566.7a3.136,3.136,0,0,0,2.63-1.3Z" transform="translate(1952.993 581.921)" fill="#fff"/>
  </g>
</svg>
