<svg xmlns="http://www.w3.org/2000/svg" width="28" height="32" viewBox="0 0 28 32">
  <path id="Icon_awesome-discord" data-name="Icon awesome-discord" d="M18.576,15.2a1.638,1.638,0,1,1-1.632-1.776A1.7,1.7,0,0,1,18.576,15.2ZM11.1,13.424a1.782,1.782,0,0,0,0,3.552A1.7,1.7,0,0,0,12.736,15.2,1.694,1.694,0,0,0,11.1,13.424ZM28,3.3V32c-4.031-3.562-2.742-2.383-7.424-6.736l.848,2.96H3.28A3.288,3.288,0,0,1,0,24.928V3.3A3.288,3.288,0,0,1,3.28,0H24.72A3.288,3.288,0,0,1,28,3.3ZM23.44,18.464a21.427,21.427,0,0,0-2.3-9.328,7.912,7.912,0,0,0-4.5-1.68l-.224.256A10.648,10.648,0,0,1,20.4,9.744,13.6,13.6,0,0,0,8.448,9.28c-.592.272-.944.464-.944.464a10.794,10.794,0,0,1,4.208-2.1l-.16-.192a7.912,7.912,0,0,0-4.5,1.68,21.426,21.426,0,0,0-2.3,9.328A5.8,5.8,0,0,0,9.632,20.9s.592-.72,1.072-1.328A4.976,4.976,0,0,1,7.9,17.68c.235.165.623.378.656.4a11.663,11.663,0,0,0,9.984.56,9.156,9.156,0,0,0,1.84-.944,5.049,5.049,0,0,1-2.9,1.9c.48.608,1.056,1.3,1.056,1.3A5.849,5.849,0,0,0,23.44,18.464Z" fill="#fff"/>
</svg>
