<svg xmlns="http://www.w3.org/2000/svg" width="28" height="28" viewBox="0 0 28 28">
  <path id="Icon_simple-readthedocs" data-name="Icon simple-readthedocs" d="M4.139,28l1.006-.168c.314-.051.624-.1.938-.147.482-.072.965-.143,1.447-.212.364-.054.727-.1,1.092-.15L8.7,27.3c.379-.051.755-.1,1.132-.14l1.839-.209V0h-.064c-.954,0-1.9.019-2.854.042C7.714.061,6.646.11,5.6.163c-.453.024-.909.054-1.362.082H4.17V27.991ZM13.459.017V26.782c1.3-.117,2.606-.212,3.912-.287q4.82-.282,9.656-.176,2.563.059,5.112.224V1.753q-2.282-.4-4.588-.708c-2.982-.4-5.992-.678-9.01-.853Q16.009.05,13.462.018h0ZM29.766,17.28l-.07,0-.85-.071c-2.12-.17-4.25-.282-6.374-.339s-4.265-.035-6.4.019h-.067a.754.754,0,0,1-.2-.019,1,1,0,0,1-.4-.174.585.585,0,0,1-.236-.577.558.558,0,0,1,.239-.35.872.872,0,0,1,.217-.121,1.64,1.64,0,0,1,.273-.071h.136c.3,0,.592-.019.864-.019,2.114-.034,4.2-.034,6.316.035,2.18.07,4.339.192,6.5.385l.229.017c.067.019.135.019.2.035a1.038,1.038,0,0,1,.386.211.767.767,0,0,1,.159.191.4.4,0,0,1,.067.21.58.58,0,0,1-.248.525,1.312,1.312,0,0,1-.2.122,1.062,1.062,0,0,1-.252.07.29.29,0,0,1-.135.019h-.071l-.073-.093Zm.053-3.163a.91.91,0,0,1-.136-.007l-.841-.083c-2.114-.209-4.248-.35-6.36-.419-2.114-.087-4.25-.1-6.385-.07l-.07-.019c-.068-.017-.136-.017-.2-.034a.917.917,0,0,1-.385-.194.883.883,0,0,1-.136-.173.551.551,0,0,1,.021-.612.692.692,0,0,1,.159-.175.519.519,0,0,1,.227-.121.785.785,0,0,1,.273-.07l.136-.019L17,12.1c2.115-.019,4.2.017,6.292.1,2.18.087,4.341.245,6.5.455l.226.019.138.016a.847.847,0,0,1,.409.194.578.578,0,0,1,.25.524.3.3,0,0,1-.068.192,1.633,1.633,0,0,1-.136.175.78.78,0,0,1-.206.14,1.048,1.048,0,0,1-.248.071l-.138.016h-.064l-.138.1Zm0-3.163a.91.91,0,0,1-.136-.007l-.841-.093c-2.114-.222-4.226-.39-6.36-.5-2.114-.107-4.25-.157-6.385-.15h-.07l-.136-.019a1.312,1.312,0,0,1-.248-.079.751.751,0,0,1-.432-.511.62.62,0,0,1,.024-.21.613.613,0,0,1,.089-.2.84.84,0,0,1,.183-.168,1.007,1.007,0,0,1,.432-.175,1.09,1.09,0,0,1,.2-.017h.862c2.18.01,4.362.075,6.521.2,2.114.122,4.2.3,6.292.533l.227.024a.634.634,0,0,1,.136.022,1.023,1.023,0,0,1,.25.093.519.519,0,0,1,.2.143,2.019,2.019,0,0,1,.136.184.546.546,0,0,1-.044.559.657.657,0,0,1-.159.17.914.914,0,0,1-.409.175.441.441,0,0,1-.138.016l-.067.006Zm0-3.164a.782.782,0,0,1-.136-.008l-.841-.1c-2.114-.262-4.226-.456-6.36-.579-2.114-.139-4.25-.209-6.385-.244h-.07l-.159-.016a1.12,1.12,0,0,1-.25-.086.918.918,0,0,1-.212-.141,1.437,1.437,0,0,1-.142-.174.858.858,0,0,1-.067-.211.643.643,0,0,1,.274-.576,1,1,0,0,1,.423-.175.809.809,0,0,1,.2-.017c.286,0,.576.006.864.009q3.266.059,6.521.287c2.1.139,4.2.35,6.28.611l.2.019A.382.382,0,0,1,30.1,6.4a1.179,1.179,0,0,1,.25.089.742.742,0,0,1,.189.139.609.609,0,0,1,.159.542.751.751,0,0,1-.092.194.688.688,0,0,1-.182.157,1.012,1.012,0,0,1-.411.174h-.2ZM6.078,7.2a1.211,1.211,0,0,1-.411-.073.725.725,0,0,1-.5-.589.573.573,0,0,1,.045-.192.491.491,0,0,1,.136-.222A.932.932,0,0,1,5.6,5.931a1.319,1.319,0,0,1,.365-.107l.727-.051c1-.068,1.977-.122,2.953-.168h.091a1.018,1.018,0,0,1,.411.083.69.69,0,0,1,.476.605.582.582,0,0,1-.044.188.512.512,0,0,1-.138.22.772.772,0,0,1-.25.192,1.224,1.224,0,0,1-.364.1c-.158.017-.317.017-.476.035-.206.017-.433.017-.661.036l-1.77.1-.432.036a1.583,1.583,0,0,1-.3.017L6.078,7.2ZM29.8,4.629l-.138-.012L28.819,4.5c-2.114-.273-4.25-.5-6.385-.658-2.114-.161-4.248-.262-6.384-.316h-.068l-.136-.021a1.136,1.136,0,0,1-.25-.083,1.08,1.08,0,0,1-.2-.141.551.551,0,0,1-.182-.59,1.056,1.056,0,0,1,.112-.21.766.766,0,0,1,.183-.175,1.068,1.068,0,0,1,.432-.175.8.8,0,0,1,.2-.017l.885.017c2.114.071,4.2.175,6.294.351,2.18.173,4.339.419,6.5.7l.227.016a.287.287,0,0,1,.136.019,1.022,1.022,0,0,1,.25.086.689.689,0,0,1,.362.491.331.331,0,0,1-.023.211.318.318,0,0,1-.089.191,1.306,1.306,0,0,1-.159.157.88.88,0,0,1-.433.157l-.13.016h-.07l-.091.1Zm-23.744-.9a1.119,1.119,0,0,1-.379-.065.934.934,0,0,1-.283-.16A.694.694,0,0,1,5.222,3.3a.518.518,0,0,1-.059-.182.644.644,0,0,1,.386-.637,1.084,1.084,0,0,1,.394-.115c.239-.016.476-.016.717-.034.985-.052,1.971-.087,2.953-.122h.073a1.38,1.38,0,0,1,.388.087.719.719,0,0,1,.455.611.533.533,0,0,1-.045.194.96.96,0,0,1-.158.227.689.689,0,0,1-.276.175.941.941,0,0,1-.386.087,4.871,4.871,0,0,1-.5.016l-.68.036c-.614.034-1.2.052-1.8.086l-.455.019a1.79,1.79,0,0,1-.294.017Z" transform="translate(-4.139 0.001)" fill="#fff"/>
</svg>
