<svg width="31" height="31" viewBox="0 0 31 31" fill="none" xmlns="http://www.w3.org/2000/svg">
<path d="M22.5002 42.9167C33.776 42.9167 42.9168 33.7758 42.9168 22.5C42.9168 16.8687 40.6369 11.7697 36.9498 8.07608C33.254 4.37385 28.1446 2.08333 22.5002 2.08333C16.8558 2.08333 11.7463 4.37385 8.05056 8.07608C4.36342 11.7697 2.0835 16.8686 2.0835 22.5C2.0835 33.7758 11.2243 42.9167 22.5002 42.9167Z" stroke="currentColor" stroke-width="4" stroke-linecap="round" stroke-linejoin="round"/>
<path d="M2.0835 22.5H6.16683" stroke="currentColor" stroke-width="4" stroke-linecap="round" stroke-linejoin="round"/>
<path d="M8.05029 8.07608L11.245 11.2708" stroke="currentColor" stroke-width="4" stroke-linecap="round" stroke-linejoin="round"/>
<path d="M22.5 2.08333V6.16667" stroke="currentColor" stroke-width="4" stroke-linecap="round" stroke-linejoin="round"/>
<path d="M42.9168 22.5H38.8335" stroke="currentColor" stroke-width="4" stroke-linecap="round" stroke-linejoin="round"/>
<path d="M36.9501 8.07608L33.7554 11.2708" stroke="currentColor" stroke-width="4" stroke-linecap="round" stroke-linejoin="round"/>
<path d="M22.5 18.4167V30.6667" stroke="currentColor" stroke-width="4" stroke-linecap="round" stroke-linejoin="round"/>
<path d="M38.6829 34.9502C34.9499 39.7952 29.0897 42.9167 22.5004 42.9167C15.9111 42.9167 10.0509 39.7952 6.31787 34.9502C11.0884 32.2244 16.6125 30.6667 22.5004 30.6667C28.3882 30.6667 33.9123 32.2244 38.6829 34.9502Z" stroke="currentColor" stroke-width="4" stroke-linecap="round" stroke-linejoin="round"/>
</svg>
