<svg xmlns="http://www.w3.org/2000/svg" width="570.437" height="570.437" viewBox="0 0 570.437 570.437">
  <g id="layer1" transform="translate(295.719 -75.681)">
    <circle id="path854" cx="284.6" cy="284.6" r="284.6" transform="translate(-295.1 76.3)" stroke="#000" stroke-miterlimit="11.339" stroke-width="1.237"/>
    <path id="path862" d="M-167.5,202.6c-12,12.6-21.9,23.2-22,23.4-.1.3,10.7,10.9,24,23.5,13.3,12.7,24.9,23.8,25.7,24.5l1.5,1.4-2.7,4.5a153.531,153.531,0,0,0-13.7,129.8A153.571,153.571,0,0,0-143,435.3c2,3.4,2.9,5.6,2.7,6s-12.3,13.2-26.9,28.5c-14.6,15.2-26.5,27.9-26.7,28.1-.1.3,40.8,39.8,44.7,43l1.5,1.3,23.1-24.1c12.7-13.3,24.6-25.8,26.4-27.7l3.4-3.4,3.2,2c16.3,10.4,35.4,17.6,56.5,21.4,10.6,1.9,30.8,2.4,42.1,1a154.175,154.175,0,0,0,61.1-20.5l4.6-2.8,4.9,4.8c10.7,10.4,50.7,48.4,51.1,48.6s44.3-45.7,44.2-46.3c-.1-.3-30.2-29.2-48.6-46.5l-6.1-5.8,2.8-4.6a153.808,153.808,0,0,0,13.2-130.2,209.616,209.616,0,0,0-12.8-27.4l-1.9-3.3,25.7-26.9c14.1-14.7,25.6-27,25.5-27.3-.4-1-45.4-43.5-46-43.5-.4,0-11.7,11.5-25.2,25.7-13.5,14.1-24.7,25.7-25,25.8a6.516,6.516,0,0,1-2.7-1.4A160.679,160.679,0,0,0,55,220.6a154.937,154.937,0,0,0-44-13.1c-8.2-1.2-32.8-1.4-40.4-.3-18.2,2.6-33.1,7.1-48.3,14.7-4.4,2.1-9.5,4.9-11.5,6.1l-3.6,2.2-4.1-4c-2.2-2.2-12.2-11.6-22.1-21.1-9.9-9.4-20-19-22.4-21.4l-4.4-4.3ZM.4,267.8a92.637,92.637,0,0,1,43.2,16.5A108.473,108.473,0,0,1,65,305.7,92.258,92.258,0,0,1,53,426.4c-28.7,26.8-70.2,32.8-105.1,15a92.827,92.827,0,0,1-48.7-64.8c-1.8-9-1.8-25.8,0-34.7,1.7-8.8,4-15.1,8.3-23.9A91.757,91.757,0,0,1,.4,267.8Z" fill="#fff"/>
  </g>
</svg>
