<svg width="25" height="31" viewBox="0 0 25 31" fill="none" xmlns="http://www.w3.org/2000/svg">
<path d="M12.5 0C4.17188 7.0525 0 13.144 0 18.29C0 26.009 5.9375 31 12.5 31C19.0625 31 25 26.009 25 18.29C25 13.144 20.8281 7.0525 12.5 0ZM5.98438 18.6C6.5625 18.6 7.03125 19.003 7.14062 19.561C7.78125 23.002 10.7031 24.18 12.8281 24.0095C13.5 23.9785 14.0625 24.5055 14.0625 25.172C14.0625 25.792 13.5625 26.3035 12.9375 26.3345C9.60937 26.536 5.71875 24.645 4.82812 19.9485C4.80097 19.7823 4.81053 19.6123 4.85613 19.4501C4.90174 19.2879 4.9823 19.1376 5.09226 19.0093C5.20221 18.8811 5.33893 18.7781 5.49297 18.7074C5.647 18.6367 5.81467 18.6001 5.98438 18.6Z" fill="currentColor" fill-opacity="0.81"/>
</svg>
