<svg xmlns="http://www.w3.org/2000/svg" width="545.539" height="130.982" viewBox="0 0 545.539 130.982">
  <g id="logo-lobbyist" transform="translate(-264.513 -137.84)">
    <g id="Group_1" data-name="Group 1" transform="translate(264.513 137.84)">
      <g id="Ellipse_1" data-name="Ellipse 1" transform="translate(0 5.039)" fill="none" stroke="#3a78ff" stroke-width="10">
        <circle cx="62.972" cy="62.972" r="62.972" stroke="none"/>
        <circle cx="62.972" cy="62.972" r="57.972" fill="none"/>
      </g>
      <path id="Path_1" data-name="Path 1" d="M0,84.894l10.495-8.183a68.3,68.3,0,0,0,8.121,1.062,17.251,17.251,0,0,0,10.12-9.526q2.936-6.778,2.936-20.583l.25-9.683q0-18.678,12.744-29.235Q55.284,0,67.091,0a25.879,25.879,0,0,1,10.37,2.311l-9.245,9.058A20.591,20.591,0,0,0,56.971,7.684q-13.93,0-13.93,22.8l-.25,8.621q0,17.679-3.373,25.893T26.487,78.585l12.931,1.062,5.747.437,6.934.437q2.749.187,6.184.187,15.492,0,24.175-9a3.747,3.747,0,0,1,1,1.812q0,2.061-6,7.059-10.245,8.433-21.989,8.433-4.81,0-11.806-.5L25.112,87.143Q10.62,86.081,0,84.894Z" transform="matrix(0.875, 0.485, -0.485, 0.875, 43.601, 0)" fill="#3a78ff"/>
    </g>
    <path id="Path_3" data-name="Path 3" d="M66.727-126.724v8.517H24.247v-74.875H34.332v66.358Zm27.484-45.249a26.991,26.991,0,0,1,10.45,1.933,22.4,22.4,0,0,1,7.942,5.486,24.082,24.082,0,0,1,5.042,8.6,34.176,34.176,0,0,1,1.75,11.26,34.115,34.115,0,0,1-1.75,11.286,24.118,24.118,0,0,1-5.042,8.569,22.111,22.111,0,0,1-7.942,5.46,27.316,27.316,0,0,1-10.45,1.907,27.661,27.661,0,0,1-10.529-1.907,22.061,22.061,0,0,1-7.968-5.46,24.118,24.118,0,0,1-5.042-8.569,34.115,34.115,0,0,1-1.75-11.286,34.176,34.176,0,0,1,1.75-11.26,24.081,24.081,0,0,1,5.042-8.6,22.342,22.342,0,0,1,7.968-5.486A27.331,27.331,0,0,1,94.211-171.973Zm0,47.235q7.838,0,11.7-5.251t3.867-14.656q0-9.457-3.867-14.735t-11.7-5.277a16.422,16.422,0,0,0-6.923,1.359,12.86,12.86,0,0,0-4.912,3.919,17.406,17.406,0,0,0-2.926,6.3,33.75,33.75,0,0,0-.967,8.438q0,9.405,3.893,14.656T94.211-124.739Zm46.294-6.218a14.956,14.956,0,0,0,5.617,4.859,15.827,15.827,0,0,0,6.714,1.411q7.472,0,11.443-5.277t3.971-15.727q0-9.719-3.527-14.291t-10.058-4.572a14.712,14.712,0,0,0-7.916,2.09,23.313,23.313,0,0,0-6.244,5.9Zm0-32.552a27.216,27.216,0,0,1,7.55-6.166,19.884,19.884,0,0,1,9.692-2.3,19.286,19.286,0,0,1,8.386,1.777,17.409,17.409,0,0,1,6.348,5.147,24.063,24.063,0,0,1,4,8.177,39.064,39.064,0,0,1,1.385,10.816,41.013,41.013,0,0,1-1.568,11.7,26.561,26.561,0,0,1-4.52,9.013,20.513,20.513,0,0,1-7.184,5.8,21.411,21.411,0,0,1-9.51,2.064,18.127,18.127,0,0,1-8.8-1.959A19.257,19.257,0,0,1,140.035-125l-.47,4.807a2.238,2.238,0,0,1-2.4,1.986h-6.009v-76.965h9.353Zm58.521,32.552a14.955,14.955,0,0,0,5.617,4.859,15.828,15.828,0,0,0,6.714,1.411q7.472,0,11.443-5.277t3.971-15.727q0-9.719-3.527-14.291t-10.058-4.572a14.712,14.712,0,0,0-7.916,2.09,23.313,23.313,0,0,0-6.244,5.9Zm0-32.552a27.215,27.215,0,0,1,7.55-6.166,19.884,19.884,0,0,1,9.692-2.3,19.286,19.286,0,0,1,8.386,1.777A17.408,17.408,0,0,1,231-165.05a24.063,24.063,0,0,1,4,8.177,39.064,39.064,0,0,1,1.385,10.816,41.014,41.014,0,0,1-1.568,11.7,26.561,26.561,0,0,1-4.52,9.013,20.512,20.512,0,0,1-7.184,5.8,21.411,21.411,0,0,1-9.51,2.064,18.127,18.127,0,0,1-8.8-1.959A19.257,19.257,0,0,1,198.556-125l-.47,4.807a2.238,2.238,0,0,1-2.4,1.986h-6.009v-76.965h9.353Zm93.476-7.629-29.522,68.553a4.869,4.869,0,0,1-1.176,1.672,3.192,3.192,0,0,1-2.168.627h-6.9l9.666-21-21.841-49.847h8.047a2.844,2.844,0,0,1,1.907.6,3.154,3.154,0,0,1,.967,1.332l14.16,33.336a37.217,37.217,0,0,1,1.411,4.6q.731-2.456,1.568-4.65L282.366-169.2a2.972,2.972,0,0,1,1.071-1.385,2.826,2.826,0,0,1,1.7-.549Zm18.026,0v52.93h-9.3v-52.93Zm1.986-16.616a5.918,5.918,0,0,1-.549,2.534,7.3,7.3,0,0,1-1.463,2.09,6.714,6.714,0,0,1-2.142,1.437,6.538,6.538,0,0,1-2.586.522,6.169,6.169,0,0,1-2.534-.522,6.57,6.57,0,0,1-2.064-1.437,7.132,7.132,0,0,1-1.411-2.09,6.168,6.168,0,0,1-.523-2.534,6.537,6.537,0,0,1,.523-2.586,6.942,6.942,0,0,1,1.411-2.142,6.57,6.57,0,0,1,2.064-1.437,6.169,6.169,0,0,1,2.534-.522,6.538,6.538,0,0,1,2.586.522,6.715,6.715,0,0,1,2.142,1.437,7.086,7.086,0,0,1,1.463,2.142A6.27,6.27,0,0,1,312.514-187.753Zm44.1,25.342a2.061,2.061,0,0,1-1.933,1.15,3.638,3.638,0,0,1-1.777-.575q-.993-.575-2.43-1.28a22.821,22.821,0,0,0-3.422-1.306,16.327,16.327,0,0,0-4.7-.6,13.878,13.878,0,0,0-4.232.6,10.164,10.164,0,0,0-3.213,1.646,7.28,7.28,0,0,0-2.038,2.43,6.523,6.523,0,0,0-.705,3,5.005,5.005,0,0,0,1.176,3.4,10.216,10.216,0,0,0,3.109,2.351,27.1,27.1,0,0,0,4.389,1.75q2.456.758,5.042,1.62t5.042,1.907a18.3,18.3,0,0,1,4.389,2.613,11.95,11.95,0,0,1,3.109,3.84,11.755,11.755,0,0,1,1.176,5.46,17.291,17.291,0,0,1-1.306,6.766,14.766,14.766,0,0,1-3.867,5.382,18.645,18.645,0,0,1-6.27,3.579,25.759,25.759,0,0,1-8.569,1.306,26.73,26.73,0,0,1-10.032-1.8,25.421,25.421,0,0,1-7.629-4.624l2.195-3.553a3.188,3.188,0,0,1,.993-1.045,2.68,2.68,0,0,1,1.463-.366,3.5,3.5,0,0,1,1.986.732q1.045.731,2.534,1.62a19.284,19.284,0,0,0,3.631,1.62,16.676,16.676,0,0,0,5.33.732,14.537,14.537,0,0,0,4.755-.705,9.988,9.988,0,0,0,3.4-1.907,7.552,7.552,0,0,0,2.012-2.769,8.606,8.606,0,0,0,.653-3.344,5.547,5.547,0,0,0-1.176-3.631,9.921,9.921,0,0,0-3.109-2.456,25.332,25.332,0,0,0-4.415-1.777q-2.482-.758-5.068-1.594t-5.068-1.907a17.817,17.817,0,0,1-4.415-2.691,12.19,12.19,0,0,1-3.109-4,12.926,12.926,0,0,1-1.176-5.774,14.082,14.082,0,0,1,1.254-5.826,14.288,14.288,0,0,1,3.658-4.912,18.013,18.013,0,0,1,5.9-3.37,23.628,23.628,0,0,1,7.994-1.254,25.285,25.285,0,0,1,9.379,1.646,22.2,22.2,0,0,1,7.184,4.52Zm30.671,45.04q-6.27,0-9.64-3.5t-3.37-10.084v-32.4H367.9a2.083,2.083,0,0,1-1.411-.5,1.929,1.929,0,0,1-.575-1.541v-3.71l8.674-1.1,2.142-16.354a2.276,2.276,0,0,1,.705-1.28,2.06,2.06,0,0,1,1.437-.5h4.7v18.235h15.309v6.74H383.575v31.768a6.758,6.758,0,0,0,1.62,4.964,5.657,5.657,0,0,0,4.18,1.62,7.379,7.379,0,0,0,2.534-.392,10.877,10.877,0,0,0,1.855-.862q.784-.47,1.332-.862a1.744,1.744,0,0,1,.967-.392,1.6,1.6,0,0,1,1.306.888l2.717,4.441a17.327,17.327,0,0,1-5.8,3.527A19.694,19.694,0,0,1,387.285-117.371Z" transform="translate(409.965 360.06)" fill="#fff"/>
  </g>
</svg>
