<svg xmlns="http://www.w3.org/2000/svg" width="134.868" height="32.381" viewBox="0 0 134.868 32.381">
  <g id="logo-lobbyist" transform="translate(-264.513 -137.84)">
    <g id="Group_1" data-name="Group 1" transform="translate(264.513 137.84)">
      <g id="Ellipse_1" data-name="Ellipse 1" transform="translate(0 1.246)" fill="none" stroke="#3a78ff" stroke-width="3">
        <circle cx="15.568" cy="15.568" r="15.568" stroke="none"/>
        <circle cx="15.568" cy="15.568" r="14.068" fill="none"/>
      </g>
      <path id="Path_1" data-name="Path 1" d="M0,20.988l2.594-2.023a16.885,16.885,0,0,0,2.008.263,4.265,4.265,0,0,0,2.5-2.355,13.492,13.492,0,0,0,.726-5.089L7.892,9.39a8.874,8.874,0,0,1,3.15-7.228A8.6,8.6,0,0,1,16.586,0,6.4,6.4,0,0,1,19.15.571L16.864,2.811a5.091,5.091,0,0,0-2.78-.911q-3.444,0-3.444,5.637l-.062,2.131a18.06,18.06,0,0,1-.834,6.4,6.93,6.93,0,0,1-3.2,3.359l3.2.263,1.421.108,1.714.108q.68.046,1.529.046a7.918,7.918,0,0,0,5.977-2.224.926.926,0,0,1,.247.448q0,.51-1.483,1.745a8.4,8.4,0,0,1-5.436,2.085q-1.189,0-2.919-.124l-4.587-.34Q2.625,21.281,0,20.988Z" transform="matrix(0.875, 0.485, -0.485, 0.875, 10.779, 0)" fill="#3a78ff"/>
    </g>
    <path id="Path_3" data-name="Path 3" d="M34.749-178.251v2.106h-10.5v-18.511h2.493v16.405Zm6.795-11.186a6.673,6.673,0,0,1,2.583.478,5.536,5.536,0,0,1,1.963,1.356,5.954,5.954,0,0,1,1.247,2.125,8.449,8.449,0,0,1,.433,2.784,8.434,8.434,0,0,1-.433,2.79,5.962,5.962,0,0,1-1.247,2.118,5.466,5.466,0,0,1-1.963,1.35,6.753,6.753,0,0,1-2.583.471,6.838,6.838,0,0,1-2.6-.471,5.454,5.454,0,0,1-1.97-1.35,5.962,5.962,0,0,1-1.247-2.118,8.434,8.434,0,0,1-.433-2.79,8.449,8.449,0,0,1,.433-2.784,5.954,5.954,0,0,1,1.247-2.125,5.523,5.523,0,0,1,1.97-1.356A6.757,6.757,0,0,1,41.544-189.437Zm0,11.677a3.359,3.359,0,0,0,2.893-1.3,6.011,6.011,0,0,0,.956-3.623,6.066,6.066,0,0,0-.956-3.643,3.353,3.353,0,0,0-2.893-1.3,4.06,4.06,0,0,0-1.712.336,3.179,3.179,0,0,0-1.214.969,4.3,4.3,0,0,0-.723,1.557,8.344,8.344,0,0,0-.239,2.086,5.981,5.981,0,0,0,.962,3.623A3.405,3.405,0,0,0,41.544-177.76ZM52.989-179.3a3.7,3.7,0,0,0,1.389,1.2,3.913,3.913,0,0,0,1.66.349,3.326,3.326,0,0,0,2.829-1.3,6.421,6.421,0,0,0,.982-3.888,5.786,5.786,0,0,0-.872-3.533,2.955,2.955,0,0,0-2.487-1.13,3.637,3.637,0,0,0-1.957.517,5.763,5.763,0,0,0-1.544,1.46Zm0-8.048a6.728,6.728,0,0,1,1.867-1.524,4.916,4.916,0,0,1,2.4-.568,4.768,4.768,0,0,1,2.073.439,4.3,4.3,0,0,1,1.569,1.272,5.949,5.949,0,0,1,.988,2.022,9.657,9.657,0,0,1,.342,2.674,10.139,10.139,0,0,1-.388,2.893,6.566,6.566,0,0,1-1.117,2.228,5.071,5.071,0,0,1-1.776,1.434,5.293,5.293,0,0,1-2.351.51,4.481,4.481,0,0,1-2.177-.484,4.761,4.761,0,0,1-1.544-1.376l-.116,1.188a.553.553,0,0,1-.594.491H50.677v-19.027h2.312ZM67.456-179.3a3.7,3.7,0,0,0,1.389,1.2,3.913,3.913,0,0,0,1.66.349,3.326,3.326,0,0,0,2.829-1.3,6.421,6.421,0,0,0,.982-3.888,5.786,5.786,0,0,0-.872-3.533,2.955,2.955,0,0,0-2.487-1.13,3.637,3.637,0,0,0-1.957.517,5.763,5.763,0,0,0-1.544,1.46Zm0-8.048a6.728,6.728,0,0,1,1.867-1.524,4.916,4.916,0,0,1,2.4-.568,4.768,4.768,0,0,1,2.073.439,4.3,4.3,0,0,1,1.569,1.272,5.949,5.949,0,0,1,.988,2.022,9.657,9.657,0,0,1,.342,2.674,10.14,10.14,0,0,1-.388,2.893,6.567,6.567,0,0,1-1.117,2.228,5.071,5.071,0,0,1-1.776,1.434,5.293,5.293,0,0,1-2.351.51,4.481,4.481,0,0,1-2.177-.484,4.761,4.761,0,0,1-1.544-1.376l-.116,1.188a.553.553,0,0,1-.594.491H65.144v-19.027h2.312Zm23.109-1.886-7.3,16.948a1.2,1.2,0,0,1-.291.413.789.789,0,0,1-.536.155H80.735l2.39-5.193-5.4-12.323h1.989a.7.7,0,0,1,.471.149.78.78,0,0,1,.239.329l3.5,8.241a9.2,9.2,0,0,1,.349,1.137q.181-.607.388-1.15l3.4-8.228a.735.735,0,0,1,.265-.342.7.7,0,0,1,.42-.136Zm4.457,0v13.085h-2.3V-189.23Zm.491-4.108a1.463,1.463,0,0,1-.136.626,1.8,1.8,0,0,1-.362.517,1.66,1.66,0,0,1-.53.355,1.616,1.616,0,0,1-.639.129,1.525,1.525,0,0,1-.626-.129,1.624,1.624,0,0,1-.51-.355,1.763,1.763,0,0,1-.349-.517,1.525,1.525,0,0,1-.129-.626,1.616,1.616,0,0,1,.129-.639,1.716,1.716,0,0,1,.349-.53,1.624,1.624,0,0,1,.51-.355,1.525,1.525,0,0,1,.626-.129,1.616,1.616,0,0,1,.639.129,1.66,1.66,0,0,1,.53.355,1.752,1.752,0,0,1,.362.53A1.55,1.55,0,0,1,95.513-193.338Zm10.9,6.265a.51.51,0,0,1-.478.284.9.9,0,0,1-.439-.142q-.245-.142-.6-.316a5.639,5.639,0,0,0-.846-.323,4.036,4.036,0,0,0-1.163-.149,3.43,3.43,0,0,0-1.046.149,2.512,2.512,0,0,0-.794.407,1.8,1.8,0,0,0-.5.6,1.612,1.612,0,0,0-.174.743,1.237,1.237,0,0,0,.291.84,2.526,2.526,0,0,0,.769.581,6.7,6.7,0,0,0,1.085.433q.607.187,1.247.4t1.247.471a4.523,4.523,0,0,1,1.085.646,2.954,2.954,0,0,1,.769.949,2.906,2.906,0,0,1,.291,1.35,4.275,4.275,0,0,1-.323,1.673,3.65,3.65,0,0,1-.956,1.331,4.609,4.609,0,0,1-1.55.885,6.368,6.368,0,0,1-2.118.323,6.608,6.608,0,0,1-2.48-.446,6.284,6.284,0,0,1-1.886-1.143l.543-.878a.788.788,0,0,1,.245-.258.663.663,0,0,1,.362-.09.866.866,0,0,1,.491.181q.258.181.626.4a4.767,4.767,0,0,0,.9.4,4.123,4.123,0,0,0,1.318.181,3.594,3.594,0,0,0,1.175-.174,2.469,2.469,0,0,0,.84-.471,1.867,1.867,0,0,0,.5-.685,2.128,2.128,0,0,0,.161-.827,1.371,1.371,0,0,0-.291-.9,2.453,2.453,0,0,0-.769-.607,6.264,6.264,0,0,0-1.092-.439q-.614-.187-1.253-.394t-1.253-.471a4.4,4.4,0,0,1-1.092-.665,3.013,3.013,0,0,1-.769-.988,3.2,3.2,0,0,1-.291-1.427,3.482,3.482,0,0,1,.31-1.44,3.532,3.532,0,0,1,.9-1.214,4.453,4.453,0,0,1,1.46-.833,5.841,5.841,0,0,1,1.976-.31,6.251,6.251,0,0,1,2.319.407,5.488,5.488,0,0,1,1.776,1.117ZM114-175.938a3.155,3.155,0,0,1-2.383-.865,3.454,3.454,0,0,1-.833-2.493v-8.009h-1.576a.515.515,0,0,1-.349-.123.477.477,0,0,1-.142-.381v-.917l2.144-.271.53-4.043a.563.563,0,0,1,.174-.316.509.509,0,0,1,.355-.123h1.163v4.508h3.785v1.666h-3.785v7.854a1.671,1.671,0,0,0,.4,1.227,1.4,1.4,0,0,0,1.033.4,1.824,1.824,0,0,0,.626-.1,2.687,2.687,0,0,0,.459-.213q.194-.116.329-.213a.431.431,0,0,1,.239-.1.4.4,0,0,1,.323.22l.672,1.1a4.284,4.284,0,0,1-1.434.872A4.869,4.869,0,0,1,114-175.938Z" transform="translate(282.218 339.699)" fill="#fff"/>
  </g>
</svg>
