<svg width="24" height="27" viewBox="0 0 24 27" fill="none" xmlns="http://www.w3.org/2000/svg">
<path d="M23.7851 23.7711L14.6552 1.69794C14.1402 0.556701 13.3747 0 12.3657 0H11.5585C10.5495 0 9.78402 0.556701 9.26907 1.69794L5.29562 11.3149H2.28943C1.39175 11.3219 0.661082 12.0456 0.654123 12.9503V12.9711C0.661082 13.8688 1.39175 14.5995 2.28943 14.6064H3.90387L0.111341 23.7711C0.041753 23.9729 0 24.1817 0 24.3974C0 24.9124 0.160051 25.316 0.44536 25.6291C0.73067 25.9423 1.14124 26.0954 1.65619 26.0954C1.99717 26.0884 2.32423 25.984 2.59562 25.7822C2.88789 25.5804 3.08969 25.2881 3.24974 24.9541L7.425 14.5995H10.3198C11.2175 14.5925 11.9482 13.8688 11.9552 12.9642V12.9224C11.9482 12.0247 11.2175 11.2941 10.3198 11.2871H8.775L11.9621 3.34717L20.6467 24.9472C20.8067 25.2812 21.0085 25.5735 21.3008 25.7753C21.5722 25.9771 21.9062 26.0814 22.2402 26.0884C22.7552 26.0884 23.1588 25.9353 23.451 25.6222C23.7433 25.309 23.8964 24.9054 23.8964 24.3905C23.9034 24.1817 23.8686 23.966 23.7851 23.7711Z" fill="currentColor"/>
</svg>
