<svg width="24" height="34" viewBox="0 0 24 34" fill="none" xmlns="http://www.w3.org/2000/svg">
<path d="M11.9021 10.392C11.3412 9.88165 10.2291 9.178 8.29979 9.18722C6.37045 9.19645 6.68562 10.191 6.68562 10.191C6.68562 10.191 6.64628 11.0024 7.90644 11.0277C9.1666 11.0529 10.5176 11.103 11.6136 11.5133C12.7096 11.9236 12.4634 10.9014 11.9021 10.392Z" fill="currentColor"/>
<path d="M7.34236 12.2457C7.22629 12.3156 7.19667 12.5123 7.33119 12.537C8.09311 12.6759 9.2984 12.9284 10.6431 12.7114C10.7703 12.691 10.7513 12.5171 10.6591 12.4273C10.1822 11.9606 8.90117 11.3065 7.34236 12.2457Z" fill="currentColor"/>
<path d="M23.1965 25.2965C23.1789 25.2716 23.1548 25.252 23.1268 25.2399C23.0988 25.2279 23.068 25.2238 23.0378 25.2282C23.0077 25.2326 22.9793 25.2452 22.9559 25.2647C22.9324 25.2842 22.9149 25.3098 22.9051 25.3387C22.1209 27.6697 21.4789 27.0986 21.1822 26.5974C21.0791 26.4204 21.0022 26.2293 20.9539 26.0302C20.2056 23.0525 20.8908 20.3097 20.8908 20.3097C21.2982 21.5772 22.3666 21.953 22.9139 22.0628C22.945 22.0692 22.9773 22.0665 23.0069 22.0552C23.0366 22.0439 23.0625 22.0243 23.0814 21.9989C23.1004 21.9734 23.1117 21.943 23.114 21.9113C23.1163 21.8796 23.1096 21.848 23.0945 21.82C20.9976 17.7107 22.2374 15.9693 22.2374 15.9693C22.5982 16.3705 23.1931 16.4064 23.568 16.3855C23.5995 16.3837 23.6299 16.373 23.6557 16.3547C23.6814 16.3364 23.7015 16.3111 23.7136 16.2819C23.7256 16.2527 23.7292 16.2207 23.7239 16.1895C23.7186 16.1584 23.7046 16.1294 23.6835 16.1058C22.1641 14.4285 22.0485 13.8594 21.9893 11.0185C21.9567 9.44417 21.4036 8.61621 20.8893 8.18498C20.3008 7.69209 19.8312 7.06419 19.5743 6.33966C17.5241 0.577395 13.6882 -0.184043 10.1287 0.031568C5.70961 0.299626 3.35683 3.68142 2.23992 5.3665C1.05843 7.1482 0.137709 9.78265 0.199867 10.5888C0.262026 11.3949 1.00598 11.2686 1.00598 12.2005C1.00598 13.1324 -0.434341 13.9074 0.131882 16.5273C0.381972 17.6816 1.39447 18.547 0.938968 21.1838C0.124598 25.9229 3.75746 31.6813 4.66264 32.5403C4.77238 32.6438 4.96517 32.5603 4.94526 32.4107C4.80395 31.353 5.01082 29.8855 5.01082 29.8855C6.83089 33.7864 11.923 33.0629 13.5178 32.7283C13.5515 32.7213 13.5824 32.704 13.606 32.6789C13.6296 32.6537 13.6448 32.6219 13.6497 32.5877C13.6545 32.5535 13.6487 32.5187 13.633 32.488C13.6173 32.4573 13.5925 32.4321 13.562 32.416C11.9517 31.5609 11.5836 29.8233 11.5836 29.8233C13.1861 30.5819 14.2127 30.4546 14.7075 30.292C14.7376 30.2819 14.7642 30.2636 14.7843 30.239C14.8043 30.2144 14.817 30.1847 14.8208 30.1532C14.8246 30.1217 14.8194 30.0898 14.8058 30.0611C14.7922 30.0325 14.7707 30.0083 14.7439 29.9914C14.2612 29.6883 13.5255 28.4374 12.969 27.2132C12.7405 26.708 12.6595 26.1486 12.7353 25.5994C12.811 25.0501 13.0406 24.5335 13.3973 24.1092C14.0485 23.3322 14.9027 22.2478 15.8739 21.0955C16.0769 20.8526 16.3596 21.0896 16.4664 21.3528C17.8853 24.9051 19.7312 27.5827 21.0035 28.3209C21.9261 28.8905 22.9367 28.993 23.3907 28.6346C24.6426 27.6473 23.65 25.9443 23.1965 25.2965ZM7.83562 21.9904C6.31371 22.0822 6.66044 20.1043 5.54256 20.1529C4.34505 20.2063 4.70391 21.7146 3.90071 21.8064C3.09751 21.8982 3.19123 19.5915 3.75503 19.3239C4.64321 18.9034 5.68339 18.8024 6.51622 18.8315C7.50298 18.8655 8.44555 18.8272 8.88794 19.776C9.41192 20.8954 9.35704 21.9011 7.83562 21.9904ZM17.46 7.85623C15.4364 9.0586 15.3174 9.65299 15.0275 11.7673C14.9634 12.2321 14.8984 12.776 15.1111 13.0833C15.5913 13.7773 16.5048 14.2911 16.2542 15.4628C15.6569 18.2517 14.082 21.5213 11.9696 22.5431C11.7152 22.6659 11.4238 22.4173 11.3646 22.1415C11.129 21.0362 10.5686 19.0267 10.4171 18.3707C9.66492 14.6125 6.08014 14.5606 5.97961 15.2793C5.94999 15.493 6.7056 15.7746 7.18539 15.931C7.62584 16.0767 7.64089 16.705 7.20238 16.8536C7.08736 16.8901 6.96758 16.9094 6.84692 16.9109C5.96068 16.8502 4.83648 16.9192 4.32951 16.9561C4.15982 16.9688 3.99148 16.9179 3.85734 16.8132C3.72319 16.7085 3.63287 16.5576 3.604 16.3899C3.40587 15.2395 3.756 14.8272 4.17945 13.7346C4.39021 13.1907 4.66069 12.0942 4.75442 11.5318C4.80298 11.2303 4.7821 10.868 4.75053 10.5965C4.71218 10.2756 4.69709 9.95231 4.70537 9.62919C4.73548 8.58659 4.83891 7.73531 5.63289 7.73531C7.06301 7.73531 10.0893 7.73968 10.5686 7.03651C11.0712 6.30033 8.26636 7.01418 5.25217 6.91705C5.19322 6.91508 5.137 6.89172 5.09401 6.85132C5.05103 6.81093 5.02422 6.75627 5.01859 6.69756C5.01859 6.6791 5.01519 6.66114 5.01325 6.64268C5.0087 6.59006 5.01506 6.53707 5.03192 6.48701C5.04878 6.43696 5.07578 6.39092 5.11124 6.35177C5.14669 6.31262 5.18984 6.28121 5.23799 6.25949C5.28613 6.23777 5.33824 6.22621 5.39105 6.22554C7.00085 6.20563 8.22557 6.09394 8.54753 5.62484C8.87483 5.14506 7.24803 5.36018 5.40416 5.37718C5.16816 5.37718 4.97294 5.37378 4.98508 5.13826V5.13049C4.99003 5.03703 5.0292 4.94865 5.09511 4.8822C5.16102 4.81575 5.24907 4.77588 5.34249 4.77016C6.42735 4.69878 6.88965 4.61623 6.9353 4.2695C6.98095 3.92277 6.82361 3.95774 5.62415 4.02669C5.36337 4.04126 5.43816 3.84362 5.58627 3.62752C5.96068 3.07635 7.63458 1.48646 11.3383 1.60252C17.6833 1.80454 17.4828 6.29838 17.677 7.39004C17.6927 7.48061 17.6803 7.57381 17.6415 7.65713C17.6027 7.74046 17.5394 7.80993 17.46 7.85623Z" fill="currentColor"/>
</svg>
