<svg xmlns="http://www.w3.org/2000/svg" xmlns:xlink="http://www.w3.org/1999/xlink" width="31" height="31" viewBox="0 0 31 31">
  <defs>
    <clipPath id="clip-pro-aave">
      <rect width="31" height="31"/>
    </clipPath>
  </defs>
  <g id="pro-aave" clip-path="url(#clip-pro-aave)">
    <g id="aave">
      <circle id="Ellipse_1" data-name="Ellipse 1" cx="15.5" cy="15.5" r="15.5" fill="#2ebac6"/>
      <path id="Path_1" data-name="Path 1" d="M22.5,21.119,17.316,8.009A1.4,1.4,0,0,0,16.017,7h-.458a1.4,1.4,0,0,0-1.3,1.009l-2.254,5.712H10.3a.955.955,0,0,0-.93.969V14.7a.956.956,0,0,0,.93.97h.916L9.064,21.119A1.2,1.2,0,0,0,9,21.491a1.053,1.053,0,0,0,.255.73.871.871,0,0,0,.688.279.9.9,0,0,0,.535-.186,1.173,1.173,0,0,0,.368-.491l2.37-6.15h1.643a.957.957,0,0,0,.93-.97v-.026a.956.956,0,0,0-.93-.97h-.879l1.808-4.715,4.928,12.829a1.175,1.175,0,0,0,.369.491.9.9,0,0,0,.536.186.874.874,0,0,0,.688-.279,1.057,1.057,0,0,0,.254-.73.914.914,0,0,0-.063-.372Z" transform="translate(-0.281 -0.219)" fill="#fff"/>
    </g>
  </g>
</svg>
