<svg xmlns="http://www.w3.org/2000/svg" xmlns:xlink="http://www.w3.org/1999/xlink" width="500" height="341" viewBox="0 0 500 341">
  <defs>
    <clipPath id="clip-optimism">
      <rect width="500" height="341"/>
    </clipPath>
  </defs>
  <g id="optimism" clip-path="url(#clip-optimism)">
    <rect id="Rectangle_1" data-name="Rectangle 1" width="450" height="293" rx="146.5" transform="translate(25 24)" fill="#ffaab3"/>
    <g id="optimism-ethereum-op-logo" transform="translate(144 64)">
      <circle id="Ellipse_6" data-name="Ellipse 6" cx="106" cy="106" r="106" fill="#ff0420"/>
      <path id="Path_19" data-name="Path 19" d="M149.407,242.606q-10.142,0-16.608-4.765c-4.266-3.222-6.4-7.85-6.4-13.8a31.439,31.439,0,0,1,.408-4.583c.726-4.084,1.77-8.985,3.131-14.748q5.786-23.415,29.9-23.415a29.344,29.344,0,0,1,11.753,2.224,17.861,17.861,0,0,1,8.168,6.489,17.379,17.379,0,0,1,2.995,10.21,31.411,31.411,0,0,1-.408,4.492c-.862,5.037-1.861,9.983-3.086,14.748-2,7.76-5.4,13.613-10.3,17.471C164.109,240.746,157.575,242.606,149.407,242.606Zm1.225-12.252a12.16,12.16,0,0,0,8.077-2.813c2.269-1.861,3.9-4.719,4.855-8.622,1.316-5.355,2.314-9.983,2.995-13.977a19.414,19.414,0,0,0,.363-3.676c0-5.173-2.677-7.76-8.077-7.76a12.488,12.488,0,0,0-8.168,2.813c-2.224,1.861-3.812,4.719-4.765,8.622-1.044,3.812-2.042,8.44-3.086,13.977a18.108,18.108,0,0,0-.363,3.585C142.419,227.767,145.187,230.354,150.632,230.354Z" transform="translate(-74.084 -106.477)" fill="#fff"/>
      <path id="Path_20" data-name="Path 20" d="M257.183,242.827a1.79,1.79,0,0,1-1.452-.59,2.216,2.216,0,0,1-.272-1.543l11.753-55.362a2.263,2.263,0,0,1,.953-1.543,2.5,2.5,0,0,1,1.634-.59h22.644c6.308,0,11.345,1.316,15.156,3.9a12.9,12.9,0,0,1,5.808,11.345,22.253,22.253,0,0,1-.5,4.447c-1.407,6.534-4.266,11.345-8.622,14.476-4.266,3.131-10.119,4.674-17.561,4.674H275.244l-3.9,18.65a2.436,2.436,0,0,1-.953,1.543,2.5,2.5,0,0,1-1.634.59Zm30.131-32.536a10.054,10.054,0,0,0,6.217-1.951,9.33,9.33,0,0,0,3.585-5.627,13.886,13.886,0,0,0,.272-2.541,4.854,4.854,0,0,0-1.452-3.766c-.953-.908-2.632-1.361-4.946-1.361H280.78l-3.222,15.247Z" transform="translate(-149.804 -107.517)" fill="#fff"/>
    </g>
  </g>
</svg>
