<svg xmlns="http://www.w3.org/2000/svg" width="31" height="31" viewBox="0 0 31 31">
  <g id="gauge" transform="translate(-2079 -580)">
    <circle id="Ellipse_2" data-name="Ellipse 2" cx="15.5" cy="15.5" r="15.5" transform="translate(2079 580)" fill="#3a78ff"/>
    <g id="gauge-2" data-name="gauge" transform="translate(2085.067 586.067)">
      <path id="Path_10" data-name="Path 10" d="M11.516,20.949a9.433,9.433,0,1,0-9.433-9.433,9.433,9.433,0,0,0,9.433,9.433Z" transform="translate(-2.083 -2.083)" fill="none" stroke="#fff" stroke-linecap="round" stroke-linejoin="round" stroke-width="2"/>
      <path id="Path_11" data-name="Path 11" d="M2.083,22.5H3.97" transform="translate(-2.083 -13.067)" fill="none" stroke="#fff" stroke-linecap="round" stroke-linejoin="round" stroke-width="2"/>
      <path id="Path_12" data-name="Path 12" d="M8.05,8.076,9.526,9.552" transform="translate(-5.293 -5.307)" fill="none" stroke="#fff" stroke-linecap="round" stroke-linejoin="round" stroke-width="2"/>
      <path id="Path_13" data-name="Path 13" d="M22.5,2.083V3.97" transform="translate(-13.067 -2.083)" fill="none" stroke="#fff" stroke-linecap="round" stroke-linejoin="round" stroke-width="2"/>
      <path id="Path_14" data-name="Path 14" d="M40.72,22.5H38.833" transform="translate(-21.854 -13.067)" fill="none" stroke="#fff" stroke-linecap="round" stroke-linejoin="round" stroke-width="2"/>
      <path id="Path_15" data-name="Path 15" d="M35.231,8.076,33.755,9.552" transform="translate(-19.122 -5.307)" fill="none" stroke="#fff" stroke-linecap="round" stroke-linejoin="round" stroke-width="2"/>
      <path id="Path_16" data-name="Path 16" d="M22.5,18.417v5.66" transform="translate(-13.067 -10.871)" fill="none" stroke="#fff" stroke-linecap="round" stroke-linejoin="round" stroke-width="2"/>
      <path id="Path_17" data-name="Path 17" d="M21.271,32.645a9.434,9.434,0,0,1-14.953,0A15.112,15.112,0,0,1,21.271,32.645Z" transform="translate(-4.361 -17.461)" fill="none" stroke="#fff" stroke-linecap="round" stroke-linejoin="round" stroke-width="2"/>
    </g>
  </g>
</svg>
