<svg xmlns="http://www.w3.org/2000/svg" width="96.735" height="30.986" viewBox="0 0 96.735 30.986">
  <g id="logo-lobbyist" transform="translate(-263.265 -136.784)">
    <g id="Group_1" data-name="Group 1" transform="translate(264.513 137.84)">
      <path id="Path_1" data-name="Path 1" d="M0,20.988l2.594-2.023a16.885,16.885,0,0,0,2.008.263,4.265,4.265,0,0,0,2.5-2.355,13.492,13.492,0,0,0,.726-5.089L7.892,9.39a8.874,8.874,0,0,1,3.15-7.228A8.6,8.6,0,0,1,16.586,0,6.4,6.4,0,0,1,19.15.571L16.864,2.811a5.091,5.091,0,0,0-2.78-.911q-3.444,0-3.444,5.637l-.062,2.131a18.06,18.06,0,0,1-.834,6.4,6.93,6.93,0,0,1-3.2,3.359l3.2.263,1.421.108,1.714.108q.68.046,1.529.046a7.918,7.918,0,0,0,5.977-2.224.926.926,0,0,1,.247.448q0,.51-1.483,1.745a8.4,8.4,0,0,1-5.436,2.085q-1.189,0-2.919-.124l-4.587-.34Q2.625,21.281,0,20.988Z" transform="matrix(0.875, 0.485, -0.485, 0.875, 10.779, 0)" fill="#3a78ff" stroke="#3a78ff" stroke-width="1"/>
      <text id="obbyist" transform="translate(27.487 25.16)" fill="#fff" font-size="21" font-family="'\.AppleSystemUIFont'"><tspan x="0" y="0">obbyist</tspan></text>
    </g>
  </g>
</svg>
