<svg xmlns="http://www.w3.org/2000/svg" width="32.237" height="32.237" viewBox="0 0 32.237 32.237">
  <g id="layer1" transform="translate(295.719 -75.681)">
    <circle id="path854" cx="15.5" cy="15.5" r="15.5" transform="translate(-295.1 76.3)" stroke="#000" stroke-miterlimit="11.339" stroke-width="1.237"/>
    <path id="path862" d="M-192.462,180.664c-.654.686-1.193,1.264-1.2,1.274s.583.594,1.307,1.28,1.356,1.3,1.4,1.334l.082.076-.147.245a8.362,8.362,0,0,0-.746,7.069,8.364,8.364,0,0,0,.637,1.394.851.851,0,0,1,.147.327c-.011.022-.67.719-1.465,1.552s-1.443,1.52-1.454,1.53,2.222,2.168,2.434,2.342l.082.071,1.258-1.313c.692-.724,1.34-1.405,1.438-1.509l.185-.185.174.109a8.493,8.493,0,0,0,3.077,1.165,9.743,9.743,0,0,0,2.293.054,8.4,8.4,0,0,0,3.328-1.116l.251-.153.267.261c.583.566,2.761,2.636,2.783,2.647s2.413-2.489,2.407-2.522c-.005-.016-1.645-1.59-2.647-2.533l-.332-.316.152-.251a8.377,8.377,0,0,0,.719-7.091,11.416,11.416,0,0,0-.7-1.492l-.1-.18,1.4-1.465c.768-.8,1.394-1.47,1.389-1.487-.022-.054-2.473-2.369-2.505-2.369s-.637.626-1.372,1.4-1.345,1.4-1.362,1.405a.355.355,0,0,1-.147-.076,8.753,8.753,0,0,0-.915-.5,8.439,8.439,0,0,0-2.4-.713,12.929,12.929,0,0,0-2.2-.016,8.235,8.235,0,0,0-2.631.8c-.24.114-.517.267-.626.332l-.2.12-.223-.218c-.12-.12-.664-.632-1.2-1.149s-1.089-1.035-1.22-1.165l-.24-.234Zm9.144,3.551a5.046,5.046,0,0,1,2.353.9,5.909,5.909,0,0,1,1.165,1.165,5.025,5.025,0,0,1-.654,6.574,5,5,0,0,1-5.724.817,5.055,5.055,0,0,1-2.652-3.529,6.109,6.109,0,0,1,0-1.89,4.754,4.754,0,0,1,.452-1.3,5,5,0,0,1,5.06-2.734Z" transform="translate(-95.688 -97.485)" fill="#fff"/>
  </g>
</svg>
