<svg width="31" height="31" viewBox="0 0 31 31" fill="none" xmlns="http://www.w3.org/2000/svg">
<path d="M2.19952 1.9329C1.19974 2.98266 0.37493 3.86579 0.366598 3.88245C0.358267 3.90745 1.25806 4.79058 2.36614 5.84034C3.47423 6.89843 4.44067 7.82322 4.50732 7.88154L4.6323 7.99818L4.40735 8.3731C2.4328 11.639 2.02456 15.5715 3.26594 19.1873C3.49922 19.8705 3.89913 20.7453 4.24072 21.3202C4.40735 21.6034 4.48233 21.7867 4.46567 21.82C4.449 21.8534 3.4409 22.9198 2.22451 24.1945C1.00812 25.4609 0.0166781 26.519 1.52523e-05 26.5356C-0.00831619 26.5606 3.39924 29.8516 3.72417 30.1182L3.84914 30.2265L5.7737 28.2186C6.8318 27.1105 7.82324 26.0691 7.97321 25.9108L8.25647 25.6275L8.52308 25.7941C9.8811 26.6606 11.4724 27.2605 13.2303 27.5771C14.1135 27.7354 15.7964 27.777 16.7379 27.6604C18.5541 27.4521 20.3537 26.8439 21.8284 25.9524L22.2116 25.7192L22.6199 26.1191C23.5113 26.9855 26.8439 30.1515 26.8772 30.1681C26.9106 30.1848 30.5681 26.3607 30.5597 26.3107C30.5514 26.2857 28.0436 23.8779 26.5107 22.4366L26.0024 21.9533L26.2357 21.5701C28.1936 18.3125 28.6019 14.3634 27.3355 10.7226C27.1522 10.1894 26.594 8.98963 26.2691 8.43975L26.1108 8.16481L28.2519 5.92366C29.4267 4.69893 30.3848 3.67417 30.3764 3.64917C30.3431 3.56586 26.594 0.0249946 26.544 0.0249946C26.5107 0.0249946 25.5692 0.98311 24.4445 2.16617C23.3197 3.34091 22.3866 4.30736 22.3616 4.31569C22.3449 4.32402 22.2366 4.27403 22.1367 4.19905C21.8534 4.00742 21.1369 3.61585 20.737 3.43255C19.5206 2.87435 18.3875 2.53276 17.0711 2.34114C16.388 2.24116 14.3384 2.22449 13.7052 2.31614C12.1889 2.53276 10.9475 2.90767 9.68115 3.54086C9.31457 3.71582 8.88966 3.9491 8.72303 4.04908L8.4231 4.23237L8.08151 3.89911C7.89822 3.71582 7.06508 2.93267 6.24026 2.14118C5.41545 1.35803 4.57398 0.558207 4.37402 0.358252L4.00744 0L2.19952 1.9329ZM16.188 7.36499C17.5127 7.52329 18.6958 7.97319 19.7872 8.73968C20.3454 9.13126 21.1785 9.96441 21.5701 10.5226C23.7946 13.6719 23.3697 17.9543 20.5703 20.5787C18.1792 22.8115 14.7217 23.3114 11.814 21.8284C9.71448 20.7536 8.23148 18.7874 7.75659 16.4296C7.60662 15.6798 7.60662 14.2801 7.75659 13.5386C7.89822 12.8054 8.08984 12.2805 8.4481 11.5474C9.8811 8.6647 12.9887 6.98175 16.188 7.36499Z" fill="#071018" fill-opacity="0.81"/>
</svg>
