<?xml version="1.0" encoding="UTF-8"?>
<!DOCTYPE svg PUBLIC "-//W3C//DTD SVG 1.1//EN" "http://www.w3.org/Graphics/SVG/1.1/DTD/svg11.dtd">
<!-- Creator: CorelDRAW X5 -->
<svg xmlns="http://www.w3.org/2000/svg" xml:space="preserve" width="83.82mm" height="83.82mm" style="shape-rendering:geometricPrecision; text-rendering:geometricPrecision; image-rendering:optimizeQuality; fill-rule:evenodd; clip-rule:evenodd"
viewBox="0 0 8382 8382"
 xmlns:xlink="http://www.w3.org/1999/xlink"
 xmlns:svg="http://www.w3.org/2000/svg">
 <defs>
  <style type="text/css">
   <![CDATA[
    .fil0 {fill:#1969FF}
    .fil1 {fill:white;fill-rule:nonzero}
   ]]>
  </style>
 </defs>
 <g id="Layer_x0020_1">
  <metadata id="CorelCorpID_0Corel-Layer"/>
 </g>
 <g id="Layer_x0020_1_0">
  <metadata id="CorelCorpID_1Corel-Layer"/>
  <g id="_339302168">
   <path class="fil0" d="M4191 -2c2316,0 4193,1877 4193,4193 0,2316 -1877,4193 -4193,4193 -2316,0 -4193,-1877 -4193,-4193 0,-2316 1877,-4193 4193,-4193z"/>
   <path class="fil1" d="M3936 1302c143,-75 361,-75 504,0l1461 768c86,45 134,113 142,183l1 0 0 3859c-2,76 -50,152 -143,201l-1461 768c-143,75 -361,75 -504,0l-1461 -768c-93,-49 -138,-125 -140,-201 0,-7 0,-14 0,-19l0 -3816c0,-4 0,-8 0,-13l0 -12 1 0c6,-70 52,-136 140,-183l1461 -768zm1879 3103l0 0 -1375 722c-143,75 -361,75 -504,0l-1372 -721 0 1697 1372 717c77,41 158,81 236,86l16 1c82,0 161,-41 242,-80l1385 -730 0 -1692zm-3718 1622l0 0c0,148 17,245 52,314 28,57 71,100 149,153l4 3c17,11 36,23 59,38l27 16 83 50 -119 196 -93 -56 -16 -10c-27,-17 -49,-31 -70,-45 -222,-149 -305,-311 -306,-649l0 -10 230 0zm1976 -2657l0 0c-11,4 -21,8 -30,13l-1461 768c-2,1 -3,2 -4,2l-1 1 2 1 3 2 1461 768c9,5 19,9 30,13l0 -1567zm230 0l0 0 0 1567c11,-4 21,-8 30,-13l1461 -768c2,-1 3,-2 4,-2l1 -1 -2 -1 -3 -2 -1461 -768c-9,-5 -19,-9 -30,-13zm1512 -845l0 0 -1311 689 1311 689 0 -1378zm-3250 2l0 0 0 1374 1308 -687 -1308 -687zm1768 -1023l0 0c-76,-40 -213,-40 -289,0l-1461 768c-2,1 -3,2 -4,2l-1 1 2 1 3 2 1461 768c76,40 213,40 289,0l1461 -768c2,-1 3,-2 4,-2l1 -1 -2 -1 -3 -2 -1461 -768zm1698 84l0 0 93 56 16 10c27,16 49,31 70,45 222,149 305,311 306,649l0 10 -230 0c0,-148 -17,-245 -52,-314 -28,-57 -71,-100 -149,-153l-4 -3c-17,-11 -36,-23 -59,-38l-27 -16 -83 -50 119 -196z"/>
  </g>
 </g>
</svg>
