<svg width="759" height="166" fill="none" xmlns="http://www.w3.org/2000/svg"><path d="M147.667 31.887c-1.431-1.821-4.122-1.909-5.759-.271l-28.099 28.099c-1.385 1.384-1.54 3.556-.558 5.25a35.167 35.167 0 010 35.252c-.982 1.694-.827 3.866.558 5.25l28.099 28.099c1.637 1.638 4.328 1.55 5.759-.272 23.353-29.731 23.353-71.676 0-101.407zM31.888 17.515c-1.822 1.43-1.91 4.121-.272 5.76l28.1 28.098c1.384 1.384 3.556 1.54 5.249.558a35.166 35.166 0 0135.253 0c1.694.982 3.865.826 5.25-.558l28.099-28.099c1.637-1.638 1.55-4.329-.272-5.76-29.731-23.352-71.676-23.352-101.407 0zm73.58 96.294c-1.385-1.384-3.556-1.54-5.25-.558a35.168 35.168 0 01-35.253 0c-1.694-.982-3.865-.826-5.25.558l-28.099 28.099c-1.637 1.638-1.55 4.329.272 5.759 29.73 23.353 71.676 23.353 101.407 0 1.822-1.43 1.909-4.121.272-5.759l-28.099-28.099zM51.931 64.964c.982-1.693.826-3.865-.558-5.25L23.274 31.617c-1.638-1.638-4.329-1.55-5.76.271-23.352 29.73-23.352 71.676 0 101.407 1.431 1.822 4.122 1.91 5.76.272l28.1-28.099c1.383-1.384 1.539-3.556.557-5.25a35.166 35.166 0 010-35.253z" fill="#37B06F"/><path d="M204.051 121h29.854c27.507 0 45.844-15.878 45.844-39.806 0-23.928-18.337-39.806-45.844-39.806h-29.854V121zm18.114-14.536v-50.54h11.74c16.325 0 27.395 9.84 27.395 25.27 0 15.542-11.07 25.27-27.395 25.27h-11.74zm93.936 16.325c13.865 0 24.935-6.262 28.513-16.549l-14.089-3.578c-2.459 4.697-7.379 7.827-13.753 7.827-8.162 0-13.865-5.255-15.207-13.306h44.95c.224-1.23.224-3.578.224-5.031 0-18.002-12.524-30.19-30.749-30.19-18.45 0-31.532 12.076-31.532 29.966 0 18.45 13.082 30.861 31.643 30.861zm-14.647-35.893c1.341-7.603 6.597-12.635 14.088-12.635 7.715 0 13.306 5.368 14.313 12.635h-28.401zM355.236 121h18.674V89.356h33.544V74.821H373.91V57.265h38.352V41.388h-57.026V121zm71.939-65.188c5.815 0 9.952-4.025 9.952-9.728 0-5.59-4.137-9.728-9.952-9.728-5.814 0-9.951 4.137-9.951 9.728 0 5.703 4.137 9.728 9.951 9.728zM418.901 121h16.549V63.75h-16.549V121zm84.474 2.795c19.344 0 30.637-9.28 30.637-24.04 0-17.89-16.213-21.021-30.525-23.37-11.629-1.788-22.139-3.689-22.139-14.088 0-8.498 6.932-13.977 19.679-13.977 13.53 0 21.357 6.597 21.357 17.779h9.839c-.111-16.66-11.852-26.724-31.196-26.724-19.008 0-29.854 9.28-29.854 23.481 0 17.108 15.654 20.798 29.854 23.034 11.852 1.901 22.81 3.69 22.81 14.536 0 8.833-7.491 14.424-20.35 14.424-14.759 0-23.369-7.268-23.481-19.456h-10.063c0 17.555 12.747 28.401 33.432 28.401zm57.979-1.006c9.057 0 15.654-3.578 19.679-10.063h1.007V121h9.28V83.542c0-12.859-9.28-21.133-23.928-21.133-14.201 0-23.481 7.603-23.481 19.568h9.392c-.112-7.045 5.479-11.182 13.977-11.182 9.281 0 14.76 4.92 14.76 12.523v2.237l-15.655 1.9c-16.772 1.901-25.27 9.281-25.27 19.233 0 9.728 8.051 16.101 20.239 16.101zm1.342-7.715c-7.604 0-12.3-3.243-12.3-8.61 0-5.255 4.473-9.728 15.989-11.181l15.655-1.79v5.032c0 9.504-7.828 16.549-19.344 16.549zM618.129 121h13.194l21.468-56.466h-9.504l-18.114 49.086h-1.006l-18.003-49.087h-9.504L618.129 121zm67.715 2.236c12.523 0 22.698-5.814 27.283-15.43l-7.716-3.914c-3.578 6.709-10.958 10.958-19.344 10.958-11.517 0-19.791-7.603-21.133-19.008h49.982c.111-1.23.111-2.572.111-3.69 0-17.332-12.411-29.855-29.631-29.855-17.443 0-29.966 12.523-29.966 29.743 0 18.114 12.747 31.196 30.414 31.196zm-20.798-35.557c1.566-10.175 9.504-16.996 19.903-16.996 10.734 0 18.673 6.821 20.35 16.996h-40.253zM725.959 121h9.281V90.586c0-11.181 5.926-18.784 14.424-18.784 2.124 0 5.479.447 8.386 1.677v-8.61c-1.677-.895-4.361-1.454-6.933-1.454-6.261 0-12.523 3.578-15.095 8.722h-1.006v-7.603h-9.057V121z" fill="#fff"/></svg>