<svg xmlns="http://www.w3.org/2000/svg" width="31" height="31" viewBox="0 0 31 31">
  <g id="docs" transform="translate(-1945 -575)">
    <path id="Path_2" data-name="Path 2" d="M15.5,0A15.5,15.5,0,1,1,0,15.5,15.5,15.5,0,0,1,15.5,0Z" transform="translate(1945 575)" fill="#282931"/>
    <path id="Icon_simple-readthedocs" data-name="Icon simple-readthedocs" d="M4.139,15.5l.557-.093c.174-.028.345-.055.519-.081l.8-.117c.2-.03.4-.055.6-.083l.043-.013c.21-.028.418-.055.627-.078l1.018-.116V0H8.273c-.528,0-1.052.011-1.58.023C6.118.034,5.527.061,4.948.09,4.7.1,4.445.12,4.194.136H4.156V15.5ZM9.3.009V14.826q1.08-.1,2.166-.159,2.668-.156,5.346-.1,1.419.033,2.83.124V.97Q18.376.749,17.1.579C15.449.357,13.783.2,12.112.106Q10.71.028,9.3.01h0Zm9.027,9.557h-.039l-.471-.039c-1.174-.094-2.353-.156-3.529-.188s-2.361-.019-3.543.011h-.037a.417.417,0,0,1-.111-.011.554.554,0,0,1-.221-.1.324.324,0,0,1-.131-.319.309.309,0,0,1,.132-.194.483.483,0,0,1,.12-.067.908.908,0,0,1,.151-.039h.075c.166,0,.328-.011.478-.011,1.17-.019,2.325-.019,3.5.019,1.207.039,2.4.106,3.6.213l.127.009c.037.011.075.011.111.019a.575.575,0,0,1,.214.117.425.425,0,0,1,.088.106.221.221,0,0,1,.037.116.321.321,0,0,1-.137.291.726.726,0,0,1-.111.068.588.588,0,0,1-.14.039.161.161,0,0,1-.075.011h-.039l-.04-.051Zm.029-1.751a.5.5,0,0,1-.075,0l-.466-.046c-1.17-.116-2.352-.194-3.521-.232s-2.353-.055-3.535-.039l-.039-.011c-.038-.009-.075-.009-.111-.019a.508.508,0,0,1-.213-.107.489.489,0,0,1-.075-.1.305.305,0,0,1,.012-.339.383.383,0,0,1,.088-.1.287.287,0,0,1,.126-.067.435.435,0,0,1,.151-.039l.075-.011.486-.012c1.171-.011,2.325.009,3.483.055,1.207.048,2.4.136,3.6.252l.125.011.076.009a.469.469,0,0,1,.226.107.32.32,0,0,1,.138.29.166.166,0,0,1-.038.106.9.9,0,0,1-.075.1.432.432,0,0,1-.114.078.58.58,0,0,1-.137.039l-.076.009h-.035l-.076.055Zm0-1.751a.5.5,0,0,1-.075,0l-.466-.051c-1.17-.123-2.339-.216-3.521-.277s-2.353-.087-3.535-.083H10.72l-.075-.011a.726.726,0,0,1-.137-.044.416.416,0,0,1-.239-.283.343.343,0,0,1,.013-.116.339.339,0,0,1,.049-.111.465.465,0,0,1,.1-.093.557.557,0,0,1,.239-.1.6.6,0,0,1,.111-.009h.477c1.207.006,2.415.042,3.61.111,1.17.068,2.325.166,3.483.3l.126.013a.351.351,0,0,1,.075.012.566.566,0,0,1,.138.051.287.287,0,0,1,.111.079,1.118,1.118,0,0,1,.075.1.3.3,0,0,1-.024.309.364.364,0,0,1-.088.094.506.506,0,0,1-.226.1.244.244,0,0,1-.076.009l-.037,0Zm0-1.752a.433.433,0,0,1-.075,0l-.466-.055c-1.17-.145-2.339-.252-3.521-.321s-2.353-.116-3.535-.135H10.72l-.088-.009a.62.62,0,0,1-.138-.048.508.508,0,0,1-.117-.078.8.8,0,0,1-.079-.1.475.475,0,0,1-.037-.117.356.356,0,0,1,.152-.319.554.554,0,0,1,.234-.1.448.448,0,0,1,.111-.009c.158,0,.319,0,.478,0q1.808.033,3.61.159c1.163.077,2.325.194,3.477.338l.111.011a.211.211,0,0,1,.078.006.653.653,0,0,1,.138.049.411.411,0,0,1,.1.077.337.337,0,0,1,.088.3.416.416,0,0,1-.051.107.381.381,0,0,1-.1.087.56.56,0,0,1-.228.1h-.111ZM5.212,3.986a.67.67,0,0,1-.228-.04.4.4,0,0,1-.277-.326.317.317,0,0,1,.025-.106.272.272,0,0,1,.075-.123.516.516,0,0,1,.14-.107.73.73,0,0,1,.2-.059l.4-.028c.554-.038,1.094-.068,1.635-.093h.05a.564.564,0,0,1,.228.046.382.382,0,0,1,.264.335.322.322,0,0,1-.024.1.283.283,0,0,1-.076.122.427.427,0,0,1-.138.106.678.678,0,0,1-.2.055c-.087.009-.175.009-.264.019-.114.009-.24.009-.366.02l-.98.055-.239.02A.876.876,0,0,1,5.273,4ZM18.345,2.563l-.076-.007L17.8,2.491c-1.17-.151-2.353-.277-3.535-.364s-2.352-.145-3.534-.175H10.7L10.62,1.94a.629.629,0,0,1-.138-.046.6.6,0,0,1-.111-.078.305.305,0,0,1-.1-.327.585.585,0,0,1,.062-.116.424.424,0,0,1,.1-.1.591.591,0,0,1,.239-.1.443.443,0,0,1,.111-.009l.49.009c1.17.039,2.325.1,3.484.194,1.207.1,2.4.232,3.6.388l.126.009a.159.159,0,0,1,.075.011.566.566,0,0,1,.138.048.381.381,0,0,1,.2.272.183.183,0,0,1-.013.117.176.176,0,0,1-.049.106.723.723,0,0,1-.088.087.487.487,0,0,1-.24.087l-.072.009H18.4l-.05.055ZM5.2,2.064a.619.619,0,0,1-.21-.036.517.517,0,0,1-.157-.089.384.384,0,0,1-.1-.113.287.287,0,0,1-.033-.1.357.357,0,0,1,.214-.353.6.6,0,0,1,.218-.064c.132-.009.264-.009.4-.019.545-.029,1.091-.048,1.635-.068h.04a.764.764,0,0,1,.215.048.4.4,0,0,1,.252.338.3.3,0,0,1-.025.107.531.531,0,0,1-.087.126.381.381,0,0,1-.153.1.521.521,0,0,1-.214.048A2.7,2.7,0,0,1,6.921,2l-.376.02c-.34.019-.664.029-1,.048L5.3,2.075a.991.991,0,0,1-.163.009Z" transform="translate(1948.611 582.75)" fill="#fff"/>
  </g>
</svg>
