<svg id="onx" xmlns="http://www.w3.org/2000/svg" width="30" height="30" viewBox="0 0 30 30">
  <circle id="Ellipse_10" data-name="Ellipse 10" cx="15" cy="15" r="15" transform="translate(0)" fill="#4729ff"/>
  <path id="Path_41" data-name="Path 41" d="M27.293,15.1a9.729,9.729,0,0,0-.44-1.67,12.9,12.9,0,0,0-.689-1.593,12.366,12.366,0,0,0-.957-1.5,10.3,10.3,0,0,0-1.032-1.171l-.191-.191L23.907,8.9a12.18,12.18,0,0,0-1.474-1.151,12.955,12.955,0,0,0-1.607-.864,11.054,11.054,0,0,0-1.7-.576,9.154,9.154,0,0,0-1.741-.288,10.733,10.733,0,0,0-6.045,1.363c-.306.172-.612.384-.918.6-8.4,6.889-3.807,18.443,5.222,19.384A10.616,10.616,0,0,0,27.427,16.612a13.916,13.916,0,0,0-.134-1.516Zm-5.184,3.09a5.75,5.75,0,0,1-7.326,4.221,5.887,5.887,0,0,1-4.113-6.659A6.042,6.042,0,0,1,10.9,14.9,5.962,5.962,0,0,1,17.786,11.3a5.646,5.646,0,0,1,4.323,6.89Zm-4.246,6.3a7.731,7.731,0,0,0,6.255-7.716,6.865,6.865,0,0,1-1.052,5.758A7.852,7.852,0,0,1,8.89,19.376a9.67,9.67,0,0,1-.114-1.018,8.049,8.049,0,0,0,1.741,3.379A8.382,8.382,0,0,0,17.862,24.481Zm8.015-4.933a9.547,9.547,0,0,0-3-8.425q-.328-.324-.669-.634a8.963,8.963,0,0,0-8.321-1.727A9.323,9.323,0,0,0,7.4,15.96a9.447,9.447,0,0,1,9.814-9.116,9.328,9.328,0,0,1,1.606.269,10.515,10.515,0,0,1,1.549.518,9.939,9.939,0,0,1,2.889,1.9c.172.154.325.326.479.48a5.837,5.837,0,0,1,.631.749,10.046,10.046,0,0,1,.88,1.343,10.877,10.877,0,0,1,.631,1.459,10.448,10.448,0,0,1,.4,1.516A10.949,10.949,0,0,1,25.877,19.549Z" transform="translate(-1.714 -1.714)" fill="#fff"/>
</svg>
