<svg xmlns="http://www.w3.org/2000/svg" width="31" height="31" viewBox="0 0 31 31">
  <g id="twitter" transform="translate(-1945 -575)">
    <circle id="Ellipse_2" data-name="Ellipse 2" cx="15.5" cy="15.5" r="15.5" transform="translate(1945 575)" fill="#282931"/>
    <path id="Icon_awesome-twitter" data-name="Icon awesome-twitter" d="M15.311,6.834c.011.152.011.3.011.455A9.883,9.883,0,0,1,5.371,17.24,9.884,9.884,0,0,1,0,15.67a7.235,7.235,0,0,0,.845.043,7,7,0,0,0,4.342-1.494,3.5,3.5,0,0,1-3.27-2.426,4.411,4.411,0,0,0,.661.054,3.7,3.7,0,0,0,.92-.122,3.5,3.5,0,0,1-2.8-3.433V8.25a3.522,3.522,0,0,0,1.581.444A3.5,3.5,0,0,1,1.191,4.019,9.942,9.942,0,0,0,8.4,7.679a3.948,3.948,0,0,1-.087-.8,3.5,3.5,0,0,1,6.053-2.393,6.887,6.887,0,0,0,2.22-.845,3.488,3.488,0,0,1-1.535,1.928,7.009,7.009,0,0,0,2.011-.542,7.518,7.518,0,0,1-1.754,1.808Z" transform="translate(1951.968 580.19)" fill="#fff"/>
  </g>
</svg>
