<?xml version="1.0" encoding="utf-8"?>
<!-- Generator: Adobe Illustrator 16.0.0, SVG Export Plug-In . SVG Version: 6.00 Build 0)  -->
<!DOCTYPE svg PUBLIC "-//W3C//DTD SVG 1.1//EN" "http://www.w3.org/Graphics/SVG/1.1/DTD/svg11.dtd">
<svg version="1.1" id="Layer_1" xmlns="http://www.w3.org/2000/svg" xmlns:xlink="http://www.w3.org/1999/xlink" x="0px" y="0px"
	 width="3840px" height="2160px" viewBox="0 0 3840 2160" enable-background="new 0 0 3840 2160" xml:space="preserve">
<g>
	<path fill="#7E18F8" d="M1900.769,1830h-269.23v-76.924h-153.843v-76.924h-76.927v-76.924h1038.46v76.924h-76.918v76.924h-153.848
		V1830H1900.769z"/>
	<path fill="#8F17F9" d="M2554.615,1368.457H1246.923v153.848h76.924v76.924h1192.306v-76.924h76.925v-153.848H2554.615z"/>
	<path fill="#FA34F3" d="M2631.539,791.536h-38.462V637.688h-76.925v-76.917h-76.924v-76.921h-76.918v-76.932h-153.848V330h-576.925
		v76.919h-153.843v76.932h-76.927v76.921h-76.922v76.917h-76.924v153.848h-76.924V906.92h1500.002V791.536H2631.539z"/>
	<path fill="#CF15F9" d="M2631.539,906.92h-1461.54v230.766h1500.002V906.92H2631.539z"/>
	<path fill="#AC15F9" d="M2631.539,1137.686h-1461.54v230.771h1500.002v-230.771H2631.539z"/>
	<path fill="#FFFFFF" d="M2143.385,1211.533v26.499h52.963v-79.419h-52.963V1211.533z M2090.459,1238.032h-132.383v52.925h105.885
		v52.964h52.963v-52.964h26.461v-52.925H2090.459z M2011.038,1158.613h132.347v-52.964h-132.347V1158.613z M1958.076,1026.233
		v79.416h52.962v-79.416H1958.076z M2143.385,973.27h-26.461v-52.927h-52.963v52.927h-52.923v52.957h185.31V973.27H2143.385z
		 M2487.574,973.27h-238.268v52.957h105.885v264.73h52.963v-264.73h105.879V973.27H2487.574z M1852.193,973.27v132.38h-132.388
		V973.27h-52.959v317.688h52.959v-132.344h132.388v132.344h52.925V973.27H1852.193z M1560.962,973.27h-158.846v52.957h211.81V973.27
		H1560.962z M1613.926,1238.032v-132.383h-158.848v52.964h105.884v79.419H1613.926z"/>
	<path fill="#FFFFFF" d="M1402.116,1290.957h158.846v-52.925h-158.846V1290.957L1402.116,1290.957z M1349.155,1026.233v211.809
		h52.962v-211.809H1349.155z"/>
</g>
</svg>
