<svg xmlns="http://www.w3.org/2000/svg" width="28.502" height="32" viewBox="0 0 28.502 32">
  <g id="arbitrum" transform="translate(-177.491 -53.193)">
    <g id="Symbol_-_Original_7_" transform="translate(177.491 53.194)">
      <path id="Path_22" data-name="Path 22" d="M213.194,85.689l2.35-3.988,6.334,9.866,0,1.893-.021-13.029a.981.981,0,0,0-.454-.782L210,73.091a1,1,0,0,0-.871,0,.991.991,0,0,0-.1.059l-.04.025-11.07,6.415-.043.019a1.007,1.007,0,0,0-.163.1.978.978,0,0,0-.394.623,1.009,1.009,0,0,0-.014.115l.017,10.617,5.9-9.145c.743-1.213,2.361-1.6,3.864-1.582l1.763.047L198.46,97.045l1.225.705L210.2,80.4l4.647-.017L204.359,98.172l4.37,2.514.522.3a1,1,0,0,0,.7.014l11.564-6.7-2.211,1.281Zm.9,12.914-4.414-6.928,2.695-4.572,5.8,9.137Z" transform="translate(-195.337 -71.027)" fill="#2d374b"/>
      <path id="Path_23" data-name="Path 23" d="M321.883,219.645l4.414,6.928,4.078-2.363-5.8-9.137Z" transform="translate(-307.544 -198.997)" fill="#28a0f0"/>
      <path id="Path_24" data-name="Path 24" d="M365.99,172.443l0-1.893-6.334-9.866-2.35,3.988,6.115,9.89,2.211-1.281a.98.98,0,0,0,.362-.714Z" transform="translate(-339.446 -150.009)" fill="#28a0f0"/>
      <path id="Path_25" data-name="Path 25" d="M177.491,161.84l3.122,1.8L191,146.976l-1.763-.047c-1.5-.021-3.121.369-3.864,1.582l-5.9,9.145-1.985,3.05v1.133Z" transform="translate(-177.491 -137.62)" fill="#fff"/>
      <path id="Path_26" data-name="Path 26" d="M236.428,147.406l-4.647.017-10.514,17.351,3.675,2.116,1-1.7Z" transform="translate(-216.919 -138.05)" fill="#fff"/>
      <path id="Path_27" data-name="Path 27" d="M205.994,62.526a2.96,2.96,0,0,0-1.389-2.38L193.051,53.5a3.005,3.005,0,0,0-2.651,0c-.1.049-11.236,6.509-11.236,6.509a2.969,2.969,0,0,0-.442.262,2.938,2.938,0,0,0-1.231,2.247V76.28l1.985-3.05-.017-10.617a.986.986,0,0,1,.408-.738c.052-.038,11.382-6.6,11.418-6.613a1,1,0,0,1,.871,0l11.4,6.56a.981.981,0,0,1,.454.782V75.751a.959.959,0,0,1-.341.714l-2.211,1.281-1.141.661-4.078,2.363-4.135,2.4a1,1,0,0,1-.7-.014l-4.892-2.814-1,1.695,4.4,2.531.381.216c.165.092.277.154.316.173a2.857,2.857,0,0,0,1.167.24,2.94,2.94,0,0,0,1.076-.2l12.011-6.956a2.936,2.936,0,0,0,1.132-2.212Z" transform="translate(-177.492 -53.194)" fill="#96bedc"/>
    </g>
  </g>
</svg>
