<svg id="avax" xmlns="http://www.w3.org/2000/svg" width="32" height="32" viewBox="0 0 32 32">
  <circle id="Ellipse_4" data-name="Ellipse 4" cx="16" cy="16" r="16" fill="#e84142"/>
  <path id="Path_6" data-name="Path 6" d="M11.664,22.061H8.538a2.685,2.685,0,0,1-1.179-.118A.728.728,0,0,1,7,21.367c-.012-.216.15-.481.475-1.01L15.189,7.733c.328-.536.5-.8.7-.9a.851.851,0,0,1,.721,0c.21.1.376.367.7.9L18.9,10.3l.008.013a4.664,4.664,0,0,1,.612,1.173,2.009,2.009,0,0,1,0,1.02,4.673,4.673,0,0,1-.616,1.187l-4.053,6.651-.01.016a4.751,4.751,0,0,1-.789,1.1,2.407,2.407,0,0,1-.96.517,6.034,6.034,0,0,1-1.432.085Zm7.89,0h4.476a2.681,2.681,0,0,0,1.191-.121.726.726,0,0,0,.359-.581c.011-.21-.147-.463-.457-.962l-.033-.052-2.242-3.562-.026-.04c-.315-.495-.475-.744-.678-.841a.842.842,0,0,0-.715,0c-.206.1-.372.361-.7.885L18.495,20.35l-.007.012c-.327.524-.491.786-.479,1a.734.734,0,0,0,.359.58A2.708,2.708,0,0,0,19.555,22.061Z" transform="translate(-0.302 0.281)" fill="#fff" fill-rule="evenodd"/>
</svg>
