<svg id="bsc" xmlns="http://www.w3.org/2000/svg" width="32" height="32" viewBox="0 0 32 32">
  <path id="Path_7" data-name="Path 7" d="M16,0A16,16,0,1,1,0,16,16,16,0,0,1,16,0Z" fill="#f0b90b" fill-rule="evenodd"/>
  <path id="Path_8" data-name="Path 8" d="M524.694,731.508l.012,4.231,3.595,2.115v2.477l-5.7-3.342v-6.718l2.092,1.237Zm0-4.231v2.465L522.6,728.5v-2.465l2.094-1.238,2.1,1.238-2.1,1.238Zm5.108-1.238,2.094-1.238,2.1,1.238-2.1,1.238-2.094-1.238Z" transform="translate(-515.9 -715.508)" fill="#fff"/>
  <path id="Path_9" data-name="Path 9" d="M803.9,734.862v-2.477l2.094,1.238v2.465l-2.094-1.227Zm3.595,3.879,2.094,1.238,2.1-1.238v2.465l-2.1,1.238-2.094-1.238v-2.465Zm7.2-12.7,2.094-1.238,2.1,1.238V728.5l-2.1,1.238v-2.465l-2.094-1.238Zm2.094,9.7.012-4.231,2.094-1.238v6.718l-5.7,3.342v-2.477l3.594-2.114Z" transform="translate(-793.594 -715.508)" fill="#fff"/>
  <path id="Path_10" data-name="Path 10" d="M1530.894,1318.877l-2.094,1.227v-2.465l2.094-1.238Z" transform="translate(-1509.2 -1299.523)" fill="#fff"/>
  <path id="Path_11" data-name="Path 11" d="M815.287,402.483l.012,2.477-3.605,2.115v4.241l-2.094,1.227-2.094-1.227v-4.241L803.9,404.96v-2.477l2.1-1.238,3.583,2.126,3.605-2.126,2.1,1.238ZM803.9,398.254l5.688-3.354,5.7,3.354-2.094,1.238-3.605-2.126-3.595,2.126-2.094-1.238Z" transform="translate(-793.594 -389.837)" fill="#fff"/>
</svg>
