<svg id="ftm" xmlns="http://www.w3.org/2000/svg" width="32" height="32" viewBox="0 0 32 32">
  <g id="Layer_1" data-name="Layer 1">
    <circle id="Ellipse_5" data-name="Ellipse 5" cx="16" cy="16" r="16" fill="#13b5ec"/>
    <g id="Group_3" data-name="Group 3" transform="translate(10.011 6.007)">
      <path id="Path_18" data-name="Path 18" d="M17.208,12.908l3.6-2.1v4.2Zm3.6,9.01-4.805,2.8-4.805-2.8V17.012l4.805,2.8,4.805-2.8ZM11.2,10.805l3.6,2.1-3.6,2.1Zm5.406,3.1,3.6,2.1-3.6,2.1Zm-1.2,4.2-3.6-2.1,3.6-2.1ZM20.211,9.8l-4.2,2.4L11.8,9.8l4.2-2.5ZM10,9.4V22.518l6.007,3.4,6.007-3.4V9.4L16.007,6Z" transform="translate(-10 -6)" fill="#fff" fill-rule="evenodd"/>
    </g>
  </g>
</svg>
