<svg xmlns="http://www.w3.org/2000/svg" width="32" height="32" viewBox="0 0 32 32">
  <g id="polygon" transform="translate(-144 -144)">
    <circle id="Ellipse_7" data-name="Ellipse 7" cx="16" cy="16" r="16" transform="translate(144 144)" fill="#8247e5"/>
    <g id="polygon-matic-logo" transform="translate(149.098 150.407)">
      <path id="Path_21" data-name="Path 21" d="M16.51,5.764a1.451,1.451,0,0,0-1.366,0L11.956,7.643l-2.163,1.2L6.661,10.717a1.451,1.451,0,0,1-1.366,0L2.847,9.237a1.388,1.388,0,0,1-.683-1.2V5.195A1.4,1.4,0,0,1,2.847,4L5.295,2.576a1.451,1.451,0,0,1,1.366,0l2.448,1.48a1.388,1.388,0,0,1,.683,1.2V7.13l2.163-1.253V3.942a1.4,1.4,0,0,0-.683-1.2L6.718.071a1.451,1.451,0,0,0-1.366,0L.683,2.8A1.252,1.252,0,0,0,0,3.942V9.294a1.4,1.4,0,0,0,.683,1.2l4.612,2.676a1.451,1.451,0,0,0,1.366,0l3.131-1.822,2.163-1.253,3.131-1.822a1.451,1.451,0,0,1,1.366,0L18.9,9.692a1.388,1.388,0,0,1,.683,1.2v2.847a1.4,1.4,0,0,1-.683,1.2L16.51,16.353a1.451,1.451,0,0,1-1.366,0L12.7,14.93a1.388,1.388,0,0,1-.683-1.2V11.913L9.849,13.165v1.879a1.4,1.4,0,0,0,.683,1.2l4.612,2.676a1.451,1.451,0,0,0,1.366,0l4.612-2.676a1.388,1.388,0,0,0,.683-1.2V9.635a1.4,1.4,0,0,0-.683-1.2Z" transform="translate(0 0.1)" fill="#fff"/>
    </g>
  </g>
</svg>
