<svg xmlns="http://www.w3.org/2000/svg" xmlns:xlink="http://www.w3.org/1999/xlink" width="500" height="341" viewBox="0 0 500 341">
  <defs>
    <clipPath id="clip-arbitrum">
      <rect width="500" height="341"/>
    </clipPath>
  </defs>
  <g id="arbitrum" clip-path="url(#clip-arbitrum)">
    <rect id="Rectangle_1" data-name="Rectangle 1" width="450" height="293" rx="146.5" transform="translate(25 24)" fill="#596377"/>
    <g id="Logos_and_symbols" transform="translate(-21.905 10.807)">
      <g id="Symbol_-_Original_7_" transform="translate(177.491 53.194)">
        <path id="Path_22" data-name="Path 22" d="M302.569,157.1l15.569-26.418L360.1,196.048l.02,12.543-.137-86.316a6.5,6.5,0,0,0-3.007-5.178L281.426,73.638a6.659,6.659,0,0,0-5.772.027,6.569,6.569,0,0,0-.676.391l-.263.166-73.336,42.5-.285.129a6.67,6.67,0,0,0-1.083.631A6.481,6.481,0,0,0,197.4,121.6a6.681,6.681,0,0,0-.093.763l.115,70.339,39.088-60.585c4.921-8.034,15.644-10.621,25.6-10.48l11.682.309L204.955,232.338l8.114,4.672,69.658-114.948,30.789-.112L244.038,239.8l28.953,16.653,3.459,1.99a6.648,6.648,0,0,0,4.664.092l76.614-44.4-14.648,8.488Zm5.94,85.554-29.243-45.9,17.851-30.291L335.522,227Z" transform="translate(-184.269 -59.967)" fill="#2d374b"/>
        <path id="Path_23" data-name="Path 23" d="M321.883,245.364l29.243,45.9,27.014-15.655-38.405-60.533Z" transform="translate(-226.886 -108.571)" fill="#28a0f0"/>
        <path id="Path_24" data-name="Path 24" d="M414.857,238.589l-.02-12.543-41.965-65.362L357.3,187.1l40.511,65.519,14.648-8.488a6.492,6.492,0,0,0,2.4-4.727Z" transform="translate(-239.003 -89.965)" fill="#28a0f0"/>
        <path id="Path_25" data-name="Path 25" d="M177.492,245.713l20.685,11.919,68.833-110.388-11.682-.309c-9.954-.141-20.675,2.447-25.6,10.48L190.641,218,177.491,238.2v7.508Z" transform="translate(-177.491 -85.26)" fill="#fff"/>
        <path id="Path_26" data-name="Path 26" d="M321.712,147.406l-30.788.112L221.266,262.466l24.347,14.019,6.621-11.23Z" transform="translate(-192.466 -85.423)" fill="#fff"/>
        <path id="Path_27" data-name="Path 27" d="M366.32,115.018a19.61,19.61,0,0,0-9.2-15.765L280.572,55.235a19.91,19.91,0,0,0-17.562,0c-.639.322-74.436,43.122-74.436,43.122a19.666,19.666,0,0,0-2.93,1.735,19.461,19.461,0,0,0-8.152,14.888v91.16l13.15-20.205-.115-70.339a6.534,6.534,0,0,1,2.706-4.889c.347-.249,75.4-43.694,75.643-43.814a6.659,6.659,0,0,1,5.772-.027L350.2,110.324a6.5,6.5,0,0,1,3.007,5.178v87.133a6.351,6.351,0,0,1-2.259,4.727L336.3,215.85l-7.557,4.38-27.014,15.655-27.4,15.877a6.64,6.64,0,0,1-4.664-.092l-32.413-18.642-6.621,11.229,29.128,16.771c.963.547,1.822,1.033,2.526,1.429,1.091.612,1.834,1.02,2.1,1.147a18.927,18.927,0,0,0,7.733,1.591,19.475,19.475,0,0,0,7.132-1.341l79.571-46.082a19.454,19.454,0,0,0,7.5-14.656Z" transform="translate(-177.491 -53.194)" fill="#96bedc"/>
      </g>
    </g>
  </g>
</svg>
