<svg xmlns="http://www.w3.org/2000/svg" xmlns:xlink="http://www.w3.org/1999/xlink" width="500" height="341" viewBox="0 0 500 341">
  <defs>
    <clipPath id="clip-bsc">
      <rect width="500" height="341"/>
    </clipPath>
  </defs>
  <g id="bsc" clip-path="url(#clip-bsc)">
    <rect id="Rectangle_1" data-name="Rectangle 1" width="450" height="293" rx="146.5" transform="translate(25 24)" fill="#efd585"/>
    <g id="bnb-bnb-logo" transform="translate(143.755 63.755)">
      <path id="Path_7" data-name="Path 7" d="M106.245,0A106.245,106.245,0,1,1,0,106.245,106.24,106.24,0,0,1,106.245,0Z" fill="#f0b90b" fill-rule="evenodd"/>
      <path id="Path_8" data-name="Path 8" d="M536.5,769.341l.077,28.094,23.871,14.047v16.448l-37.841-22.194V761.126l13.894,8.215Zm0-28.094v16.371l-13.9-8.224V733.024l13.9-8.224,13.97,8.224-13.97,8.224Zm33.917-8.224,13.9-8.224,13.97,8.224-13.97,8.224-13.9-8.224Z" transform="translate(-478.11 -663.096)" fill="#fff"/>
      <path id="Path_9" data-name="Path 9" d="M803.9,791.612V775.164l13.9,8.224v16.371l-13.9-8.147Zm23.871,25.761,13.9,8.224,13.97-8.224v16.371l-13.97,8.224-13.9-8.224V817.373Zm47.81-84.349,13.9-8.224,13.97,8.224v16.371l-13.97,8.224V741.248l-13.9-8.224Zm13.9,64.411.077-28.094,13.9-8.224v44.609l-37.841,22.194V811.473l23.863-14.038Z" transform="translate(-735.462 -663.096)" fill="#fff"/>
      <path id="Path_10" data-name="Path 10" d="M1542.7,1332.848l-13.9,8.147v-16.371l13.9-8.224Z" transform="translate(-1398.65 -1204.332)" fill="#fff"/>
      <path id="Path_11" data-name="Path 11" d="M879.515,445.256l.077,16.448L855.652,475.75v28.162l-13.9,8.147-13.9-8.147V475.75L803.909,461.7V445.256l13.962-8.224,23.794,14.115L865.6,437.032l13.97,8.224ZM803.9,417.171,841.673,394.9l37.841,22.271-13.9,8.224-23.939-14.115L817.8,425.394l-13.9-8.224Z" transform="translate(-735.462 -361.281)" fill="#fff"/>
    </g>
  </g>
</svg>
