<svg id="matic" xmlns="http://www.w3.org/2000/svg" width="32" height="32" viewBox="0 0 32 32">
  <circle id="Ellipse_4" data-name="Ellipse 4" cx="16" cy="16" r="16" fill="#fff"/>
  <path id="Path_1" data-name="Path 1" d="M21.092,12.693a1.3,1.3,0,0,0-1.254,0l-2.879,1.654L15,15.425l-2.879,1.653a1.294,1.294,0,0,1-1.254,0L8.583,15.784a1.232,1.232,0,0,1-.627-1.042V12.19a1.16,1.16,0,0,1,.627-1.042l2.25-1.258a1.3,1.3,0,0,1,1.256,0l2.25,1.258a1.233,1.233,0,0,1,.628,1.042v1.654l1.955-1.115V11.076a1.16,1.16,0,0,0-.627-1.042l-4.17-2.372a1.294,1.294,0,0,0-1.254,0L6.627,10.034A1.16,1.16,0,0,0,6,11.076v4.78A1.161,1.161,0,0,0,6.627,16.9l4.244,2.372a1.3,1.3,0,0,0,1.254,0L15,17.653l1.955-1.114,2.879-1.617a1.294,1.294,0,0,1,1.254,0l2.251,1.258a1.23,1.23,0,0,1,.627,1.042v2.552a1.159,1.159,0,0,1-.627,1.042l-2.25,1.294a1.3,1.3,0,0,1-1.255,0l-2.251-1.258a1.233,1.233,0,0,1-.628-1.042V18.156L15,19.271v1.653a1.159,1.159,0,0,0,.627,1.042l4.244,2.372a1.294,1.294,0,0,0,1.254,0l4.244-2.372A1.232,1.232,0,0,0,26,20.924v-4.78a1.16,1.16,0,0,0-.627-1.042l-4.28-2.409Z" fill="#6f41d8"/>
</svg>
