<svg xmlns="http://www.w3.org/2000/svg" xmlns:xlink="http://www.w3.org/1999/xlink" width="1000" height="341" viewBox="0 0 1000 341">
  <defs>
    <clipPath id="clip-avalanche">
      <rect width="1000" height="341"/>
    </clipPath>
  </defs>
  <g id="avalanche" clip-path="url(#clip-avalanche)">
    <g id="Group_11" data-name="Group 11" transform="translate(-25)">
      <rect id="Rectangle_1" data-name="Rectangle 1" width="1000" height="293" rx="146.5" transform="translate(25 24)" fill="#9b2a2a"/>
      <text id="Avalanche-2" data-name="Avalanche" transform="translate(644 209)" fill="#fff" font-size="100" font-family="'\.AppleSystemUIFont'"><tspan x="-217.822" y="0">Avalanche</tspan></text>
      <g id="avax" transform="translate(102 65)">
        <circle id="Ellipse_4" data-name="Ellipse 4" cx="106" cy="106" r="106" fill="#e84142"/>
        <path id="Path_6" data-name="Path 6" d="M37.9,108.186H17.195c-4.35,0-6.5,0-7.811-.78A4.824,4.824,0,0,1,7,103.59C6.922,102.157,8,100.4,10.15,96.9l51.1-83.637c2.175-3.55,3.283-5.325,4.665-5.985a5.638,5.638,0,0,1,4.774,0c1.388.659,2.49,2.434,4.665,5.985L85.863,30.292l.055.089c2.346,3.8,3.536,5.744,4.056,7.772a13.311,13.311,0,0,1,0,6.758c-.52,2.048-1.7,3.994-4.083,7.861L59.039,96.832l-.068.108c-2.366,3.842-3.557,5.788-5.225,7.259a15.946,15.946,0,0,1-6.361,3.423c-2.182.564-4.617.564-9.486.564Zm52.274,0h29.656c4.377,0,6.58,0,7.893-.8a4.809,4.809,0,0,0,2.38-3.848c.075-1.388-.971-3.068-3.03-6.371l-.219-.342L112,73.23l-.171-.266c-2.086-3.278-3.146-4.932-4.494-5.572a5.579,5.579,0,0,0-4.74,0c-1.368.659-2.462,2.39-4.637,5.864l-14.808,23.6-.048.082c-2.168,3.474-3.256,5.2-3.174,6.631a4.865,4.865,0,0,0,2.38,3.842C83.6,108.186,85.8,108.186,90.179,108.186Z" transform="translate(37.373 39.83)" fill="#fff" fill-rule="evenodd"/>
      </g>
    </g>
  </g>
</svg>
