<svg xmlns="http://www.w3.org/2000/svg" xmlns:xlink="http://www.w3.org/1999/xlink" width="1000" height="341" viewBox="0 0 1000 341">
  <defs>
    <clipPath id="clip-polygon">
      <rect width="1000" height="341"/>
    </clipPath>
  </defs>
  <g id="polygon" clip-path="url(#clip-polygon)">
    <g id="Group_10" data-name="Group 10" transform="translate(-25)">
      <rect id="Rectangle_1" data-name="Rectangle 1" width="1000" height="293" rx="146.5" transform="translate(25 24)" fill="#472481"/>
      <text id="Polygon-2" data-name="Polygon" transform="translate(642 207)" fill="#fff" font-size="100" font-family="'\.AppleSystemUIFont'"><tspan x="-168.066" y="0">Polygon</tspan></text>
      <g id="Group_8" data-name="Group 8" transform="translate(102 65)">
        <circle id="Ellipse_7" data-name="Ellipse 7" cx="106" cy="106" r="106" fill="#8247e5"/>
        <g id="polygon-matic-logo" transform="translate(33.771 42.446)">
          <path id="Path_21" data-name="Path 21" d="M109.381,38.749a9.61,9.61,0,0,0-9.052,0L79.207,51.2,64.874,59.117,44.13,71.563a9.61,9.61,0,0,1-9.052,0L18.859,61.757a9.194,9.194,0,0,1-4.526-7.921V34.977a9.3,9.3,0,0,1,4.526-7.921l16.219-9.429a9.61,9.61,0,0,1,9.052,0l16.219,9.807a9.194,9.194,0,0,1,4.526,7.921V47.8l14.333-8.3V26.679a9.3,9.3,0,0,0-4.526-7.921L44.507,1.032a9.61,9.61,0,0,0-9.052,0L4.526,19.136A8.3,8.3,0,0,0,0,26.679V62.134a9.3,9.3,0,0,0,4.526,7.921L35.077,87.782a9.61,9.61,0,0,0,9.052,0l20.745-12.07,14.333-8.3,20.745-12.07a9.61,9.61,0,0,1,9.052,0l16.219,9.429a9.194,9.194,0,0,1,4.526,7.921V91.554a9.3,9.3,0,0,1-4.526,7.921L109.381,108.9a9.61,9.61,0,0,1-9.052,0L84.11,99.474a9.194,9.194,0,0,1-4.526-7.921V79.484l-14.333,8.3v12.447a9.3,9.3,0,0,0,4.526,7.921l30.551,17.727a9.61,9.61,0,0,0,9.052,0l30.551-17.727a9.194,9.194,0,0,0,4.526-7.921V64.4a9.3,9.3,0,0,0-4.526-7.921Z" transform="translate(0 0.1)" fill="#fff"/>
        </g>
      </g>
    </g>
  </g>
</svg>
