<svg xmlns="http://www.w3.org/2000/svg" xmlns:xlink="http://www.w3.org/1999/xlink" width="500" height="500" viewBox="0 0 500 500">
  <defs>
    <clipPath id="clip-logo">
      <rect width="500" height="500"/>
    </clipPath>
  </defs>
  <g id="logo" clip-path="url(#clip-logo)">
    <rect width="500" height="500" fill="#282931"/>
    <g id="Ellipse_1" data-name="Ellipse 1" transform="translate(60.17 57.358)" fill="none" stroke="#3a78ff" stroke-width="20">
      <circle cx="193" cy="193" r="193" stroke="none"/>
      <circle cx="193" cy="193" r="183" fill="none"/>
    </g>
    <path id="Path_1" data-name="Path 1" d="M-1.762,57.731,32.8,30.784a224.9,224.9,0,0,0,26.741,3.5Q83.193,25.23,92.861,2.912t9.668-67.778l.823-31.884q0-61.5,41.963-96.268,34.969-28.8,73.847-28.8,16.662,0,34.146,7.611l-30.444,29.827q-18.719-12.136-37.026-12.136-45.871,0-45.871,75.081l-.823,28.387q0,58.213-11.108,85.263t-42.58,44.74l42.58,3.5,18.924,1.44,22.833,1.44q9.051.617,20.364.617,51.014,0,79.606-29.621,3.291,4.114,3.291,5.965,0,6.788-19.747,23.244-33.735,27.77-72.407,27.77-15.839,0-38.877-1.646L80.93,65.136Q33.207,61.639-1.762,57.731Z" transform="matrix(0.875, 0.485, -0.485, 0.875, 89.942, 221.501)" fill="#3a78ff"/>
  </g>
</svg>
